<svg width="107" height="28" viewBox="0 0 107 28" fill="none" xmlns="http://www.w3.org/2000/svg">
<g opacity="0.8">
<g opacity="0.8">
<g opacity="0.8">
<path opacity="0.8" d="M0.700195 0.699951H5.1002V23.5999H18.4002V27.8H0.700195V0.699951Z" fill="white"/>
<path opacity="0.8" d="M21.1006 14.2C21.1006 12.4 21.5006 10.6 22.2006 8.9C22.9006 7.2 23.9006 5.7 25.2006 4.5C26.5006 3.2 27.9006 2.2 29.6006 1.5C33.0006 0 36.9006 0 40.3006 1.5C42.0006 2.2 43.5006 3.2 44.7006 4.5C46.0006 5.8 47.0006 7.3 47.7006 8.9C49.1006 12.3 49.1006 16.1 47.7006 19.5C47.0006 21.1 46.0006 22.6 44.7006 23.9C43.4006 25.2 41.9006 26.2 40.3006 26.9C36.9006 28.3 33.0006 28.3 29.6006 26.9C26.3006 25.5 23.7006 22.9 22.2006 19.6C21.4006 18 21.1006 16.1 21.1006 14.2ZM25.5006 14.2C25.5006 15.5 25.7006 16.8 26.2006 18C27.2006 20.3 29.0006 22.1 31.3006 23.1C32.5006 23.6 33.7006 23.8 35.0006 23.8C37.5006 23.8 39.9006 22.8 41.6006 20.9C42.4006 20 43.1006 19 43.6006 17.8C44.6006 15.4 44.6006 12.7 43.6006 10.3C43.1006 9.2 42.4006 8.1 41.6006 7.2C40.8006 6.3 39.7006 5.6 38.6006 5.1C37.4006 4.6 36.2006 4.4 34.9006 4.4C33.6006 4.4 32.4006 4.6 31.2006 5.2C28.9006 6.2 27.1006 8 26.2006 10.4C25.8006 11.6 25.5006 12.9 25.5006 14.2Z" fill="white"/>
<path opacity="0.8" d="M75.1003 25.2C74.6003 25.6 74.1003 25.9 73.5003 26.2C72.8003 26.6 72.0003 26.9 71.2003 27.1C70.4003 27.4 69.5003 27.6001 68.6003 27.8001C67.8003 27.9001 67.0003 28 66.1003 28C64.1003 28 62.1003 27.7001 60.2003 27C58.5003 26.4 57.0003 25.4 55.7003 24.2C54.5003 23 53.5003 21.6 52.8003 20C52.1003 18.3 51.8003 16.5 51.8003 14.7001C51.7003 12.6 52.1003 10.5 52.9003 8.50005C53.6003 6.80005 54.6003 5.30005 55.9003 4.00005C57.2003 2.80005 58.7003 1.80005 60.3003 1.20005C62.0003 0.60005 63.8003 0.300049 65.6003 0.300049C67.1003 0.300049 68.7003 0.500051 70.2003 0.900051C71.5003 1.20005 72.7003 1.70005 73.8003 2.30005L72.4003 6.30005C71.8003 6.00005 71.2003 5.70005 70.6003 5.50005C69.9003 5.30005 69.1003 5.10005 68.4003 4.90005C67.7003 4.70005 67.0003 4.70005 66.3003 4.70005C64.9003 4.70005 63.5003 4.90005 62.1003 5.40005C60.9003 5.80005 59.9003 6.50005 59.0003 7.30005C58.1003 8.20005 57.4003 9.20005 57.0003 10.4001C56.5003 11.7001 56.3003 13.1 56.3003 14.5C56.3003 15.8 56.5003 17.1 57.0003 18.3C57.5003 19.4 58.1003 20.4001 59.0003 21.2001C59.9003 22 60.9003 22.7 62.1003 23.1C63.4003 23.5 64.7003 23.8 66.1003 23.8C66.9003 23.8 67.7003 23.7 68.5003 23.6C69.2003 23.5 69.9003 23.2001 70.5003 22.9001V18.4001H65.5003V14.2001H75.0003L75.1003 25.2Z" fill="white"/>
<path opacity="0.8" d="M79.1001 14.2C79.1001 12.4 79.5001 10.6 80.2001 8.9C80.9001 7.2 81.9001 5.7 83.2001 4.5C84.5001 3.2 86.0001 2.2 87.6001 1.5C91.0001 0 94.9001 0 98.3001 1.5C100 2.2 101.5 3.2 102.7 4.5C104 5.8 105 7.3 105.7 8.9C107.1 12.3 107.1 16.1 105.7 19.5C105 21.1 104 22.6 102.7 23.9C101.4 25.2 99.9001 26.2 98.3001 26.9C94.9001 28.3 91.0001 28.3 87.6001 26.9C86.0001 26.2 84.5001 25.2 83.2001 23.9C81.9001 22.6 80.9001 21.2 80.2001 19.5C79.4001 17.9 79.0001 16.1 79.1001 14.2ZM83.5001 14.2C83.5001 15.5 83.7001 16.8 84.2001 18C84.7001 19.1 85.3001 20.2 86.2001 21.1C87.1001 22 88.1001 22.7 89.2001 23.2C90.4001 23.7 91.6001 23.9 92.9001 23.9C95.4001 23.9 97.8001 22.9 99.5001 21C100.4 20.1 101 19.1 101.5 17.9C102 16.7 102.2 15.4 102.2 14.1C102.2 12.8 102 11.5 101.5 10.3C101 9.2 100.3 8.1 99.5001 7.2C97.8001 5.4 95.4001 4.4 92.8001 4.4C91.5001 4.4 90.3001 4.6 89.1001 5.2C88.0001 5.7 87.0001 6.4 86.1001 7.3C85.2001 8.2 84.6001 9.2 84.1001 10.4C83.8001 11.6 83.5001 12.9 83.5001 14.2Z" fill="white"/>
</g>
</g>
</g>
</svg>
