<svg id="_-e-in" data-name="-e-in" xmlns="http://www.w3.org/2000/svg" width="76.03" height="76" viewBox="0 0 76.03 76">
  <defs>
    <style>
      .cls-1 {
        fill: #0077b5;
      }

      .cls-1, .cls-2 {
        fill-rule: evenodd;
      }

      .cls-2 {
        fill: #fff;
      }
    </style>
  </defs>
  <path id="_-e-button4" data-name="-e-button4" class="cls-1" d="M2133.09,5642c-17.19.22-37.99,10.2-38.67,36.91s17.85,39.29,40.02,39.08c0.86-.01-1.23-0.03-0.39-0.07,21.73-1.04,37.12-12.93,36.34-40.31-0.64-22.7-19.47-34.63-37.45-35.56C2132.01,5642.01,2134.02,5641.99,2133.09,5642Z" transform="translate(-2094.41 -5642)"/>
  <path id="_-e-linkedin" data-name="-e-linkedin" class="cls-2" d="M2141.55,5694.25v-10.29c0-2.59-.91-4.35-3.2-4.35a3.469,3.469,0,0,0-3.24,2.34,4.336,4.336,0,0,0-.21,1.56v10.74h-6.32s0.08-17.43,0-19.24h6.32v2.73c-0.01.02-.03,0.04-0.04,0.06h0.04v-0.06a6.267,6.267,0,0,1,5.7-3.18c4.15,0,7.27,2.75,7.27,8.66v11.03h-6.32Zm-19.63-21.86h-0.04A3.611,3.611,0,1,1,2121.92,5672.39Zm3.16,21.86h-6.31v-19.24h6.31v19.24Z" transform="translate(-2094.41 -5642)"/>
</svg>
