<svg id="_-e-in" data-name="-e-in" xmlns="http://www.w3.org/2000/svg" width="90" height="90" viewBox="0 0 90 90">
  <defs>
    <style>
      .cls-1 {
        fill: #fff;
        opacity: 0.3;
      }

      .cls-1, .cls-2 {
        fill-rule: evenodd;
      }

      .cls-2 {
        fill: #3d3935;
      }
    </style>
  </defs>
  <path id="_-e-button4" data-name="-e-button4" class="cls-1" d="M1895.63,6084c-20.35.26-44.99,12.08-45.79,43.71s21.15,46.52,47.4,46.28c1.02-.01-1.46-0.04-0.47-0.09,25.74-1.23,43.96-15.31,43.04-47.73-0.76-26.88-23.05-41.01-44.34-42.11C1894.36,6084.01,1896.74,6083.99,1895.63,6084Z" transform="translate(-1849.84 -6084)"/>
  <path id="_-e-linkedin" data-name="-e-linkedin" class="cls-2" d="M1905.66,6145.87v-12.19c0-3.06-1.08-5.14-3.79-5.14a4.091,4.091,0,0,0-3.84,2.76,5.215,5.215,0,0,0-.25,1.85v12.72h-7.48s0.1-20.64,0-22.78h7.48v3.23a0.351,0.351,0,0,1-.05.08h0.05v-0.08a7.426,7.426,0,0,1,6.75-3.76c4.92,0,8.61,3.25,8.61,10.25v13.06h-7.48Zm-23.24-25.88h-0.05A4.268,4.268,0,1,1,1882.42,6119.99Zm3.74,25.88h-7.48v-22.78h7.48v22.78Z" transform="translate(-1849.84 -6084)"/>
</svg>
