<svg id="_-e-insta" data-name="-e-insta" xmlns="http://www.w3.org/2000/svg" width="90" height="90" viewBox="0 0 90 90">
  <defs>
    <style>
      .cls-1 {
        fill: #fff;
        opacity: 0.3;
      }

      .cls-1, .cls-2 {
        fill-rule: evenodd;
      }

      .cls-2 {
        fill: #3d3935;
      }
    </style>
  </defs>
  <path id="_-e-button4" data-name="-e-button4" class="cls-1" d="M2005.6,6084c-20.35.26-44.99,12.08-45.79,43.71s21.14,46.52,47.4,46.28c1.02-.01-1.46-0.04-0.47-0.09,25.73-1.23,43.96-15.31,43.04-47.73-0.76-26.88-23.05-41.01-44.35-42.11C2004.32,6084.01,2006.7,6083.99,2005.6,6084Z" transform="translate(-1959.81 -6084)"/>
  <path id="_-e-instagram" data-name="-e-instagram" class="cls-2" d="M2025.5,6138.14a15.162,15.162,0,0,1-.97,5.06,10.663,10.663,0,0,1-6.08,6.08,15.162,15.162,0,0,1-5.06.97c-2.22.1-2.93,0.13-8.58,0.13s-6.36-.03-8.58-0.13a15.1,15.1,0,0,1-5.05-.97,10.163,10.163,0,0,1-3.69-2.4,10.345,10.345,0,0,1-2.4-3.68,15.447,15.447,0,0,1-.96-5.06c-0.11-2.22-.13-2.92-0.13-8.58s0.02-6.36.13-8.58a15.38,15.38,0,0,1,.96-5.05,10.621,10.621,0,0,1,6.09-6.09,15.38,15.38,0,0,1,5.05-.96c2.22-.11,2.93-0.13,8.58-0.13s6.36,0.02,8.58.13a15.447,15.447,0,0,1,5.06.96,10.345,10.345,0,0,1,3.68,2.4,10.163,10.163,0,0,1,2.4,3.69,15.1,15.1,0,0,1,.97,5.05c0.1,2.22.12,2.93,0.12,8.58S2025.6,6135.92,2025.5,6138.14Zm-3.75-16.99a11.567,11.567,0,0,0-.71-3.86,6.864,6.864,0,0,0-3.95-3.95,11.373,11.373,0,0,0-3.87-.72c-2.19-.1-2.85-0.12-8.41-0.12s-6.21.02-8.41,0.12a11.242,11.242,0,0,0-3.86.72,6.79,6.79,0,0,0-3.95,3.95,11.242,11.242,0,0,0-.72,3.86c-0.1,2.2-.12,2.86-0.12,8.41s0.02,6.22.12,8.41a11.373,11.373,0,0,0,.72,3.87,6.864,6.864,0,0,0,3.95,3.95,11.567,11.567,0,0,0,3.86.71c2.2,0.1,2.85.13,8.41,0.13s6.22-.03,8.41-0.13a11.7,11.7,0,0,0,3.87-.71,6.94,6.94,0,0,0,3.95-3.95,11.7,11.7,0,0,0,.71-3.87c0.1-2.19.13-2.85,0.13-8.41S2021.85,6123.35,2021.75,6121.15Zm-5.83-.2a2.5,2.5,0,1,1,2.5-2.5A2.5,2.5,0,0,1,2015.92,6120.95Zm-11.11,19.3a10.69,10.69,0,1,1,10.69-10.69A10.686,10.686,0,0,1,2004.81,6140.25Zm0-17.63a6.94,6.94,0,1,0,6.94,6.94A6.944,6.944,0,0,0,2004.81,6122.62Z" transform="translate(-1959.81 -6084)"/>
</svg>
