<svg id="_-e-tw" data-name="-e-tw" xmlns="http://www.w3.org/2000/svg" width="90" height="90" viewBox="0 0 90 90">
  <defs>
    <style>
      .cls-1 {
        fill: #fff;
        opacity: 0.3;
      }

      .cls-1, .cls-2 {
        fill-rule: evenodd;
      }

      .cls-2 {
        fill: #3d3935;
      }
    </style>
  </defs>
  <path id="_-e-button4" data-name="-e-button4" class="cls-1" d="M1785.95,6084c-20.36.26-44.99,12.08-45.8,43.71s21.15,46.52,47.4,46.28c1.02-.01-1.46-0.04-0.46-0.09,25.73-1.23,43.96-15.31,43.04-47.73-0.77-26.88-23.06-41.01-44.35-42.11C1784.67,6084.01,1787.05,6083.99,1785.95,6084Z" transform="translate(-1740.16 -6084)"/>
  <path id="_-e-twitter" data-name="-e-twitter" class="cls-2" d="M1805.87,6118.74a4.063,4.063,0,0,1-3.76.03c1.58-.97,1.66-1.65,2.23-3.47a15.244,15.244,0,0,1-4.87,1.89,7.58,7.58,0,0,0-5.59-2.46,7.736,7.736,0,0,0-7.66,7.8,8.026,8.026,0,0,0,.2,1.78,21.6,21.6,0,0,1-15.79-8.15,7.9,7.9,0,0,0,2.37,10.42,7.432,7.432,0,0,1-3.47-.98v0.1a7.774,7.774,0,0,0,6.15,7.65,7.636,7.636,0,0,1-3.46.14,7.678,7.678,0,0,0,7.15,5.41,15.174,15.174,0,0,1-11.34,3.23,21.355,21.355,0,0,0,11.74,3.51c14.09,0,21.8-11.89,21.8-22.2,0-.34-0.01-0.68-0.02-1.01C1803.04,6121.33,1804.84,6120.3,1805.87,6118.74Z" transform="translate(-1740.16 -6084)"/>
</svg>
