<svg id="_-e-tw" data-name="-e-tw" xmlns="http://www.w3.org/2000/svg" width="76" height="76" viewBox="0 0 76 76">
  <defs>
    <style>
      .cls-1 {
        fill: #1da1f2;
      }

      .cls-1, .cls-2 {
        fill-rule: evenodd;
      }

      .cls-2 {
        fill: #fff;
      }
    </style>
  </defs>
  <path id="_-e-button4" data-name="-e-button4" class="cls-1" d="M2040.22,5642c-17.18.22-37.99,10.2-38.67,36.91s17.86,39.29,40.03,39.08c0.86-.01-1.24-0.03-0.4-0.07,21.74-1.04,37.13-12.93,36.35-40.31-0.64-22.7-19.47-34.63-37.45-35.56C2039.14,5642.01,2041.15,5641.99,2040.22,5642Z" transform="translate(-2001.56 -5642)"/>
  <path id="_-e-twitter" data-name="-e-twitter" class="cls-2" d="M2056.76,5671.33a3.408,3.408,0,0,1-3.18.03c1.34-.82,1.4-1.39,1.88-2.93a12.757,12.757,0,0,1-4.11,1.6,6.366,6.366,0,0,0-4.71-2.08,6.526,6.526,0,0,0-6.47,6.59,6.759,6.759,0,0,0,.16,1.5,18.261,18.261,0,0,1-13.33-6.88,6.657,6.657,0,0,0,2,8.79,6.336,6.336,0,0,1-2.93-.82v0.08a6.552,6.552,0,0,0,5.19,6.46,6.269,6.269,0,0,1-2.92.12,6.486,6.486,0,0,0,6.04,4.57,12.856,12.856,0,0,1-9.58,2.73,18.1,18.1,0,0,0,9.92,2.96c11.9,0,18.41-10.04,18.41-18.75,0-.28-0.01-0.57-0.02-0.85C2054.37,5673.52,2055.89,5672.66,2056.76,5671.33Z" transform="translate(-2001.56 -5642)"/>
</svg>
