<svg id="_-e-vk" data-name="-e-vk" xmlns="http://www.w3.org/2000/svg" width="76" height="76" viewBox="0 0 76 76">
  <defs>
    <style>
      .cls-1 {
        fill: #45668e;
      }

      .cls-1, .cls-2 {
        fill-rule: evenodd;
      }

      .cls-2 {
        fill: #fff;
      }
    </style>
  </defs>
  <path id="_-e-button4" data-name="-e-button4" class="cls-1" d="M1947.36,5642c-17.19.22-37.99,10.2-38.67,36.91s17.86,39.29,40.03,39.08c0.86-.01-1.24-0.03-0.4-0.07,21.73-1.04,37.13-12.93,36.35-40.31-0.65-22.7-19.47-34.63-37.45-35.56C1946.28,5642.01,1948.29,5641.99,1947.36,5642Z" transform="translate(-1908.69 -5642)"/>
  <path id="_-e-vkontakte" data-name="-e-vkontakte" class="cls-2" d="M1962.85,5689.12a19.138,19.138,0,0,0-3.5-4.08c-1.88-1.76-1.88-1.76-.04-4.17,0.34-.44.72-0.94,1.15-1.52,2.86-3.85,2.98-5.13,2.72-5.87-0.17-.46-0.65-1.01-2.02-1.01,0,0,.28.02-5.57,0.05a1.755,1.755,0,0,0-.89.23,1.992,1.992,0,0,0-.74.91c-0.9,2.43-3.37,6.91-4.35,7.34-0.38-.45-0.26-2.26-0.18-3.49,0.15-2.41.33-5.14-1.69-5.63-1.43-.36-5.59-0.45-6.99.24a1.973,1.973,0,0,0-1.22,1.66l0.17,0.61,0.54,0.07a1.487,1.487,0,0,1,.98.46c0.49,0.73.6,5.49,0.11,6.12-0.9-.09-3.36-4.51-4.43-7.24a2.139,2.139,0,0,0-.66-0.88,2.6,2.6,0,0,0-1.2-.46l-4.78.03a2.166,2.166,0,0,0-1.51.6,1.731,1.731,0,0,0-.13,1.63c0.16,0.35,3.83,8.71,8.09,13.21,3.65,3.84,7.26,3.73,9.94,3.75,1.82,0,2.05-.08,2.29-0.35a3.135,3.135,0,0,0,.58-2.02c0.05-1.05.14-1.4,0.59-1.55a5.566,5.566,0,0,1,1.76,1.65,11.917,11.917,0,0,0,2.07,2.07,4.291,4.291,0,0,0,2.41.84s-0.23,0,4.71-.06a2.573,2.573,0,0,0,2.03-1.1A2,2,0,0,0,1962.85,5689.12Z" transform="translate(-1908.69 -5642)"/>
</svg>
