<svg width="235" height="56" viewBox="0 0 235 56" fill="none" xmlns="http://www.w3.org/2000/svg">
<path d="M64.9276 34.1463C66.5282 36.9831 69.5295 38.5591 72.6308 38.454C76.4325 38.454 79.2337 36.2477 79.2337 32.3602C79.2337 23.7448 63.3269 28.4728 63.3269 17.7561C63.3269 12.1876 67.7288 9.14072 73.031 9.14072C76.1323 9.14072 79.0336 10.5066 81.2345 12.818L79.5338 14.9193C77.633 13.2383 75.7322 11.9775 73.031 11.9775C69.4295 11.9775 66.4282 13.7636 66.4282 17.651C66.4282 25.3208 82.335 21.3283 82.335 32.1501C82.335 37.7186 78.1332 41.2908 72.6308 41.2908C68.4291 41.2908 65.0276 39.6098 62.8267 35.9325L64.9276 34.1463Z" fill="#1C3360"/>
<path d="M89.3383 40.4503L86.5371 40.7655V9.87616H92.3396C98.6423 9.87616 102.644 13.4484 102.644 20.0675C102.644 26.6867 98.5422 30.2589 91.4392 30.2589H89.3383V40.4503ZM89.3383 27.4221H91.9394C96.9416 27.4221 99.6427 24.5854 99.6427 20.0675C99.6427 15.5497 96.9416 12.6079 92.8398 12.6079H89.3383V27.4221Z" fill="#1C3360"/>
<path d="M131.456 36.9831C128.255 39.6098 124.253 41.0807 120.251 41.1857C111.848 41.3959 104.845 34.3565 104.645 25.4259C104.645 25.2158 104.645 25.0056 104.645 24.9006C104.645 16.7054 110.847 9.14072 120.851 9.14072C124.553 9.24578 128.055 10.7167 130.956 13.1332L129.255 15.2345C126.954 13.5535 123.853 11.8724 120.952 11.8724C113.248 11.8724 107.746 17.8612 107.746 24.9006C107.746 32.3602 113.448 38.349 120.551 38.349C123.553 38.349 126.354 37.2983 128.755 35.4071V26.5816H118.851L119.751 23.8499H131.556L131.456 36.9831Z" fill="#1C3360"/>
<path d="M155.066 22.9043L154.066 23.0094V12.3978H150.765L150.965 11.3471H158.068V12.3978H155.066V22.9043Z" fill="#1C3360" stroke="#1C3360" stroke-width="0.13" stroke-miterlimit="10"/>
<path d="M159.468 23.0094V11.3471L160.569 11.137V16.6004H167.272V11.4522L168.372 11.242V23.0094L167.272 23.1144V17.651H160.569V23.0094H159.468Z" fill="#1C3360" stroke="#1C3360" stroke-width="0.13" stroke-miterlimit="10"/>
<path d="M170.773 22.9043V11.3471H177.076L177.276 12.3978H171.773V16.4953H176.475V17.546H171.773V21.8537H177.576L177.376 22.9043H170.773Z" fill="#1C3360" stroke="#1C3360" stroke-width="0.13" stroke-miterlimit="10"/>
<path d="M179.077 23.0094V11.3471H181.378C183.178 11.242 184.679 12.6079 184.779 14.499C184.779 14.6041 184.779 14.7092 184.779 14.7092C184.779 16.3902 183.679 17.8611 182.078 17.9662L185.68 22.379L184.579 22.9043L180.177 17.2308H180.077V22.6942L179.077 23.0094ZM180.177 17.2308H181.678C183.078 17.2308 183.779 16.1801 183.779 14.8142C183.779 13.5535 182.878 12.5028 181.678 12.5028H180.177V17.2308Z" fill="#1C3360" stroke="#1C3360" stroke-width="0.13" stroke-miterlimit="10"/>
<path d="M190.682 18.3865L188.281 23.1144L187.18 22.9043L193.083 11.137L199.085 22.9043L198.085 23.1144L195.684 18.3865H190.682ZM193.083 13.4484L191.182 17.3358H195.084L193.083 13.4484Z" fill="#1C3360" stroke="#1C3360" stroke-width="0.13" stroke-miterlimit="10"/>
<path d="M202.186 22.9043L201.086 23.0094V11.3471H203.287C205.688 11.3471 207.189 12.713 207.189 15.2345C207.189 17.7561 205.688 19.0169 202.987 19.0169H202.186V22.9043ZM202.186 17.9662H203.187C205.088 17.9662 206.088 16.9156 206.088 15.1295C206.188 13.7636 205.188 12.5028 203.887 12.2927C203.787 12.2927 203.687 12.2927 203.487 12.2927H202.186V17.9662Z" fill="#1C3360" stroke="#1C3360" stroke-width="0.13" stroke-miterlimit="10"/>
<path d="M213.491 17.4409L216.793 11.137L217.993 11.3471L211.691 23.0094L210.49 22.6942L212.891 18.4916L208.489 11.3471L209.59 11.137L213.491 17.4409Z" fill="#1C3360" stroke="#1C3360" stroke-width="0.13" stroke-miterlimit="10"/>
<path d="M230.699 19.4371L232.799 17.3358L233.5 17.9662L231.299 20.0675L233.3 22.5891L232.499 23.1144L230.599 20.803C229.598 21.7486 228.598 23.1144 227.097 23.1144C225.596 23.2195 224.296 22.0638 224.196 20.4878C224.196 20.3827 224.196 20.3827 224.196 20.2777C224.196 18.7017 225.396 17.8612 226.497 16.8105L226.897 16.3902C226.197 15.6548 225.897 14.8142 225.796 13.7636C225.696 12.3977 226.697 11.242 227.997 11.242C228.097 11.242 228.198 11.242 228.298 11.242C229.498 11.1369 230.498 12.0825 230.599 13.3433C230.599 14.8142 229.098 15.6548 228.198 16.6004L230.699 19.4371ZM227.497 17.0206C226.597 18.0713 225.196 18.7017 225.196 20.2777C225.196 21.3283 225.997 22.1688 226.997 22.1688H227.097C228.298 22.1688 229.198 20.803 229.998 20.0675L227.497 17.0206ZM229.598 13.1332C229.498 12.3977 228.898 11.8724 228.198 11.9775C227.397 11.9775 226.797 12.6079 226.697 13.4484C226.697 13.5535 226.697 13.6585 226.697 13.6585C226.797 14.499 227.097 15.2345 227.597 15.7598C228.398 15.1294 229.598 14.2889 229.598 13.1332Z" fill="#1C3360" stroke="#1C3360" stroke-width="0.13" stroke-miterlimit="10"/>
<path d="M151.965 43.0769V31.5197H158.268L158.468 32.5704H153.065V36.6679H157.767V37.7186H153.065V42.0263H158.868L158.668 43.0769H151.965Z" fill="#1C3360" stroke="#1C3360" stroke-width="0.13" stroke-miterlimit="10"/>
<path d="M160.369 31.5197H163.37C166.371 31.5197 168.872 34.1464 168.872 37.2983C168.872 40.4503 166.371 43.0769 163.37 43.0769H160.369V31.5197ZM161.369 42.0263H163.07C165.571 42.1313 167.672 40.1351 167.872 37.5085C167.872 37.4034 167.872 37.2983 167.872 37.1933C167.972 34.7768 166.171 32.6754 163.87 32.5704C163.67 32.5704 163.57 32.5704 163.37 32.5704H161.369V42.0263Z" fill="#1C3360" stroke="#1C3360" stroke-width="0.13" stroke-miterlimit="10"/>
<path d="M178.776 39.3996C178.776 41.8161 177.176 43.2871 174.675 43.2871C172.173 43.2871 170.573 41.8161 170.573 39.3996V31.5197L171.673 31.3096V39.5047C171.773 41.1857 173.074 42.4465 174.675 42.3415C176.275 42.3415 177.676 41.0807 177.676 39.3996C177.676 39.2946 177.676 39.2946 177.676 39.1895V31.5197L178.676 31.3096L178.776 39.3996Z" fill="#1C3360" stroke="#1C3360" stroke-width="0.13" stroke-miterlimit="10"/>
<path d="M188.38 42.7617C187.68 43.0769 186.98 43.287 186.179 43.287C182.978 43.3921 180.277 40.8705 180.177 37.5084C180.077 34.1463 182.478 31.3096 185.679 31.2045C185.879 31.2045 185.979 31.2045 186.179 31.2045C186.98 31.2045 187.68 31.4146 188.38 31.7298L188.48 32.9906C187.78 32.4653 186.88 32.2552 186.079 32.2552C183.478 32.2552 181.277 34.4615 181.277 37.2983C181.277 40.03 183.378 42.2364 186.079 42.2364C186.98 42.2364 187.78 42.0263 188.48 41.5009L188.38 42.7617Z" fill="#1C3360" stroke="#1C3360" stroke-width="0.13" stroke-miterlimit="10"/>
<path d="M192.382 38.5591L190.081 43.3921L188.981 43.182L194.883 31.4146L200.886 43.182L199.886 43.3921L197.485 38.6642L192.382 38.5591ZM194.883 33.621L192.983 37.5085H196.884L194.883 33.621Z" fill="#1C3360" stroke="#1C3360" stroke-width="0.13" stroke-miterlimit="10"/>
<path d="M203.887 43.0769L202.787 43.182V32.5704H199.585L199.786 31.5197H206.889V32.5704H203.787L203.887 43.0769Z" fill="#1C3360" stroke="#1C3360" stroke-width="0.13" stroke-miterlimit="10"/>
<path d="M208.389 31.5197L209.49 31.3096V43.0769L208.389 43.182V31.5197Z" fill="#1C3360" stroke="#1C3360" stroke-width="0.13" stroke-miterlimit="10"/>
<path d="M223.496 37.2983C223.195 40.8705 220.194 43.4972 216.793 43.2871C213.791 43.0769 211.39 40.5553 211.09 37.2983C211.39 33.7261 214.392 31.0994 217.793 31.3096C220.895 31.6248 223.296 34.1463 223.496 37.2983ZM212.291 37.2983C212.291 40.2401 214.492 42.5516 217.293 42.5516C220.094 42.5516 222.295 40.2401 222.295 37.2983C222.295 34.3565 220.094 32.045 217.293 32.045C214.492 32.045 212.291 34.3565 212.291 37.2983Z" fill="#1C3360" stroke="#1C3360" stroke-width="0.13" stroke-miterlimit="10"/>
<path d="M233 31.5197L234 31.3096V43.287L226.197 33.9362V43.0769L225.196 43.182V31.2045L233 40.4503V31.5197Z" fill="#1C3360" stroke="#1C3360" stroke-width="0.13" stroke-miterlimit="10"/>
<path d="M142.061 3.15198V51.9025" stroke="#1C3360" stroke-width="0.5" stroke-miterlimit="10"/>
<path d="M33.4141 0H22.2093C20.9088 0 19.6082 0.105066 18.4077 0.420263V20.1726H33.8143V35.5122H52.6223V0H33.4141Z" fill="url(#paint0_linear)"/>
<path d="M16.8071 40.2401V30.1538C16.8071 20.4878 24.2103 25.1107 33.4142 25.1107L33.8144 20.0675C43.0183 20.0675 50.4215 25.531 50.4215 35.197V45.2833C50.4215 54.9493 42.4181 56 33.3142 56L33.4142 50.3265C24.2103 50.3265 16.8071 49.9062 16.8071 40.2401Z" fill="url(#paint1_linear)"/>
<path d="M18.4079 0.420258C8.90381 2.20637 1.60068 10.0863 0 20.0675H18.4079V0.420258Z" fill="url(#paint2_linear)"/>
<path d="M33.7142 20.0675H33.4141V35.5122H33.7142V20.0675Z" fill="url(#paint3_linear)"/>
<path d="M33.4141 20.0675H18.4077V35.5122H33.4141V20.0675Z" fill="url(#paint4_linear)"/>
<path d="M33.4141 20.0675H18.4077V35.5122H33.4141V20.0675Z" fill="url(#paint5_linear)"/>
<path d="M33.8145 20.0675H0.100098V56H33.9145V35.5122V20.0675H33.8145Z" fill="url(#paint6_linear)"/>
<defs>
<linearGradient id="paint0_linear" x1="18.3977" y1="17.7351" x2="96.1209" y2="17.7351" gradientUnits="userSpaceOnUse">
<stop stop-color="#E5AF2A"/>
<stop offset="0.52" stop-color="#DA1B5A"/>
</linearGradient>
<linearGradient id="paint1_linear" x1="33.5643" y1="20.078" x2="33.5643" y2="56.021" gradientUnits="userSpaceOnUse">
<stop stop-color="#DA1B5A"/>
<stop offset="1" stop-color="#36BFE8"/>
</linearGradient>
<linearGradient id="paint2_linear" x1="9.19893" y1="35.9114" x2="9.19893" y2="-0.0210183" gradientUnits="userSpaceOnUse">
<stop stop-color="#40B0A1"/>
<stop offset="0.03" stop-color="#3FADA0" stop-opacity="0.99"/>
<stop offset="0.05" stop-color="#3DA49B" stop-opacity="0.97"/>
<stop offset="0.07" stop-color="#389593" stop-opacity="0.94"/>
<stop offset="0.09" stop-color="#328088" stop-opacity="0.88"/>
<stop offset="0.11" stop-color="#2A657A" stop-opacity="0.82"/>
<stop offset="0.12" stop-color="#204468" stop-opacity="0.74"/>
<stop offset="0.13" stop-color="#1B3460" stop-opacity="0.7"/>
<stop offset="0.22" stop-color="#245371" stop-opacity="0.78"/>
<stop offset="0.36" stop-color="#307B86" stop-opacity="0.87"/>
<stop offset="0.48" stop-color="#399895" stop-opacity="0.94"/>
<stop offset="0.58" stop-color="#3EAA9F" stop-opacity="0.98"/>
<stop offset="0.65" stop-color="#40B0A2"/>
<stop offset="0.69" stop-color="#48B09C"/>
<stop offset="0.75" stop-color="#5EB08C"/>
<stop offset="0.83" stop-color="#82B072"/>
<stop offset="0.92" stop-color="#B3AF4E"/>
<stop offset="1" stop-color="#E5AF2A"/>
</linearGradient>
<linearGradient id="paint3_linear" x1="18.3976" y1="27.7741" x2="52.5923" y2="27.7741" gradientUnits="userSpaceOnUse">
<stop stop-color="#E5AF2A"/>
<stop offset="1" stop-color="#DA1B5A"/>
</linearGradient>
<linearGradient id="paint4_linear" x1="18.3977" y1="27.7741" x2="52.5923" y2="27.7741" gradientUnits="userSpaceOnUse">
<stop stop-color="#E5AF2A"/>
<stop offset="1" stop-color="#DA1B5A"/>
</linearGradient>
<linearGradient id="paint5_linear" x1="25.9209" y1="35.9114" x2="25.9209" y2="-0.0210196" gradientUnits="userSpaceOnUse">
<stop stop-color="#40B0A1"/>
<stop offset="1" stop-color="#E5AF2A"/>
</linearGradient>
<linearGradient id="paint6_linear" x1="-41.2476" y1="38.0443" x2="34.5648" y2="38.0443" gradientUnits="userSpaceOnUse">
<stop stop-color="#40B3A3"/>
<stop offset="0.09" stop-color="#368F90"/>
<stop offset="0.22" stop-color="#275E76"/>
<stop offset="0.33" stop-color="#1E3F66"/>
<stop offset="0.38" stop-color="#1B3460"/>
<stop offset="0.47" stop-color="#1D426E"/>
<stop offset="0.65" stop-color="#246892"/>
<stop offset="0.88" stop-color="#2EA4CC"/>
<stop offset="1" stop-color="#34C4EC"/>
</linearGradient>
</defs>
</svg>
