<svg width="251" height="58" viewBox="0 0 251 58" fill="none" xmlns="http://www.w3.org/2000/svg">
<path d="M69.3673 35.3658C71.0774 38.3039 74.2839 39.9362 77.5973 39.8274C81.6588 39.8274 84.6516 37.5422 84.6516 33.5159C84.6516 24.5929 67.6571 29.4897 67.6571 18.3902C67.6571 12.6229 72.36 9.46716 78.0248 9.46716C81.3382 9.46716 84.4378 10.8818 86.7892 13.2758L84.9722 15.4522C82.9414 13.7111 80.9106 12.4052 78.0248 12.4052C74.177 12.4052 70.9705 14.2552 70.9705 18.2814C70.9705 26.2251 87.9649 22.0901 87.9649 33.2983C87.9649 39.0657 83.4758 42.7655 77.5973 42.7655C73.1082 42.7655 69.4741 41.0244 67.1227 37.2158L69.3673 35.3658Z" fill="white"/>
<path d="M95.4468 41.8949L92.454 42.2214V10.2289H98.6533C105.387 10.2289 109.662 13.9287 109.662 20.7842C109.662 27.6398 105.28 31.3396 97.6913 31.3396H95.4468V41.8949ZM95.4468 28.4015H98.2257C103.57 28.4015 106.456 25.4634 106.456 20.7842C106.456 16.1051 103.57 13.0582 99.1877 13.0582H95.4468V28.4015Z" fill="white"/>
<path d="M140.445 38.3039C137.024 41.0244 132.749 42.5478 128.474 42.6567C119.496 42.8743 112.014 35.5835 111.8 26.334C111.8 26.1163 111.8 25.8987 111.8 25.7899C111.8 17.3021 118.427 9.46716 129.115 9.46716C133.07 9.57598 136.811 11.0994 139.91 13.6022L138.093 15.7786C135.635 14.0375 132.322 12.2964 129.222 12.2964C120.992 12.2964 115.113 18.4991 115.113 25.7899C115.113 33.5159 121.206 39.7186 128.794 39.7186C132.001 39.7186 134.994 38.6304 137.559 36.6717V27.531H126.977L127.939 24.7017H140.552L140.445 38.3039Z" fill="white"/>
<path d="M165.669 23.7223L164.6 23.8311V12.8405H161.073L161.287 11.7523H168.876V12.8405H165.669V23.7223Z" fill="white" stroke="white" stroke-width="0.13" stroke-miterlimit="10"/>
<path d="M170.372 23.8311V11.7523L171.548 11.5347V17.1932H178.709V11.8612L179.885 11.6435V23.8311L178.709 23.94V18.2814H171.548V23.8311H170.372Z" fill="white" stroke="white" stroke-width="0.13" stroke-miterlimit="10"/>
<path d="M182.45 23.7223V11.7523H189.183L189.397 12.8405H183.519V17.0844H188.542V18.1726H183.519V22.6341H189.718L189.504 23.7223H182.45Z" fill="white" stroke="white" stroke-width="0.13" stroke-miterlimit="10"/>
<path d="M191.321 23.8311V11.7523H193.779C195.703 11.6435 197.306 13.0582 197.413 15.0169C197.413 15.1257 197.413 15.2345 197.413 15.2345C197.413 16.9756 196.238 18.4991 194.528 18.6079L198.375 23.1782L197.2 23.7223L192.497 17.8461H192.39V23.5047L191.321 23.8311ZM192.497 17.8461H194.1C195.596 17.8461 196.345 16.758 196.345 15.3433C196.345 14.0375 195.383 12.9493 194.1 12.9493H192.497V17.8461Z" fill="white" stroke="white" stroke-width="0.13" stroke-miterlimit="10"/>
<path d="M203.72 19.0431L201.154 23.94L199.979 23.7223L206.285 11.5347L212.698 23.7223L211.629 23.94L209.064 19.0431H203.72ZM206.285 13.9287L204.254 17.955H208.422L206.285 13.9287Z" fill="white" stroke="white" stroke-width="0.13" stroke-miterlimit="10"/>
<path d="M216.011 23.7223L214.835 23.8311V11.7523H217.187C219.752 11.7523 221.355 13.167 221.355 15.7786C221.355 18.3902 219.752 19.6961 216.866 19.6961H216.011V23.7223ZM216.011 18.6079H217.08C219.111 18.6079 220.18 17.5197 220.18 15.6698C220.286 14.2552 219.218 12.9493 217.828 12.7317C217.721 12.7317 217.614 12.7317 217.401 12.7317H216.011V18.6079Z" fill="white" stroke="white" stroke-width="0.13" stroke-miterlimit="10"/>
<path d="M228.089 18.0638L231.616 11.5347L232.899 11.7523L226.165 23.8311L224.882 23.5047L227.448 19.152L222.745 11.7523L223.92 11.5347L228.089 18.0638Z" fill="white" stroke="white" stroke-width="0.13" stroke-miterlimit="10"/>
<path d="M246.473 20.1313L248.717 17.955L249.466 18.6079L247.114 20.7842L249.252 23.3959L248.397 23.9399L246.366 21.546C245.297 22.5253 244.228 23.9399 242.625 23.9399C241.022 24.0488 239.632 22.8518 239.525 21.2195C239.525 21.1107 239.525 21.1107 239.525 21.0019C239.525 19.3696 240.808 18.499 241.984 17.4109L242.411 16.9756C241.663 16.2139 241.342 15.3433 241.236 14.2551C241.129 12.8405 242.197 11.6435 243.587 11.6435C243.694 11.6435 243.801 11.6435 243.908 11.6435C245.19 11.5347 246.259 12.5141 246.366 13.8199C246.366 15.3433 244.763 16.2139 243.801 17.1932L246.473 20.1313ZM243.053 17.6285C242.091 18.7167 240.594 19.3696 240.594 21.0019C240.594 22.09 241.449 22.9606 242.518 22.9606H242.625C243.908 22.9606 244.87 21.546 245.725 20.7842L243.053 17.6285ZM245.297 13.6022C245.19 12.8405 244.549 12.2964 243.801 12.4052C242.946 12.4052 242.304 13.0581 242.197 13.9287C242.197 14.0375 242.197 14.1463 242.197 14.1463C242.304 15.0169 242.625 15.7786 243.159 16.3227C244.014 15.6698 245.297 14.7992 245.297 13.6022Z" fill="white" stroke="white" stroke-width="0.13" stroke-miterlimit="10"/>
<path d="M162.356 44.6154V32.6454H169.089L169.303 33.7336H163.531V37.9775H168.555V39.0657H163.531V43.5272H169.731L169.517 44.6154H162.356Z" fill="white" stroke="white" stroke-width="0.13" stroke-miterlimit="10"/>
<path d="M171.334 32.6454H174.54C177.747 32.6454 180.419 35.3658 180.419 38.6304C180.419 41.8949 177.747 44.6154 174.54 44.6154H171.334V32.6454ZM172.403 43.5272H174.22C176.892 43.636 179.136 41.5685 179.35 38.848C179.35 38.7392 179.35 38.6304 179.35 38.5216C179.457 36.0187 177.533 33.8424 175.075 33.7336C174.861 33.7336 174.754 33.7336 174.54 33.7336H172.403V43.5272Z" fill="white" stroke="white" stroke-width="0.13" stroke-miterlimit="10"/>
<path d="M191 40.8068C191 43.3096 189.29 44.833 186.618 44.833C183.946 44.833 182.236 43.3096 182.236 40.8068V32.6454L183.412 32.4278V40.9156C183.519 42.6567 184.908 43.9625 186.618 43.8537C188.328 43.8537 189.825 42.5478 189.825 40.8068C189.825 40.6979 189.825 40.6979 189.825 40.5891V32.6454L190.894 32.4278L191 40.8068Z" fill="white" stroke="white" stroke-width="0.13" stroke-miterlimit="10"/>
<path d="M201.261 44.2889C200.513 44.6154 199.765 44.833 198.91 44.833C195.489 44.9418 192.604 42.3302 192.497 38.848C192.39 35.3659 194.955 32.4278 198.375 32.319C198.589 32.319 198.696 32.319 198.91 32.319C199.765 32.319 200.513 32.5366 201.261 32.8631L201.368 34.1689C200.62 33.6248 199.658 33.4071 198.803 33.4071C196.024 33.4071 193.672 35.6923 193.672 38.6304C193.672 41.4597 195.917 43.7448 198.803 43.7448C199.765 43.7448 200.62 43.5272 201.368 42.9831L201.261 44.2889Z" fill="white" stroke="white" stroke-width="0.13" stroke-miterlimit="10"/>
<path d="M205.537 39.9362L203.078 44.9418L201.903 44.7242L208.209 32.5366L214.622 44.7242L213.553 44.9418L210.988 40.045L205.537 39.9362ZM208.209 34.8218L206.178 38.848H210.346L208.209 34.8218Z" fill="white" stroke="white" stroke-width="0.13" stroke-miterlimit="10"/>
<path d="M217.828 44.6154L216.652 44.7242V33.7336H213.232L213.446 32.6454H221.035V33.7336H217.721L217.828 44.6154Z" fill="white" stroke="white" stroke-width="0.13" stroke-miterlimit="10"/>
<path d="M222.638 32.6454L223.814 32.4278V44.6154L222.638 44.7242V32.6454Z" fill="white" stroke="white" stroke-width="0.13" stroke-miterlimit="10"/>
<path d="M238.777 38.6304C238.457 42.3302 235.25 45.0507 231.616 44.833C228.41 44.6154 225.844 42.0038 225.524 38.6304C225.844 34.9306 229.051 32.2101 232.685 32.4278C235.998 32.7542 238.564 35.3659 238.777 38.6304ZM226.806 38.6304C226.806 41.6773 229.158 44.0713 232.151 44.0713C235.143 44.0713 237.495 41.6773 237.495 38.6304C237.495 35.5835 235.143 33.1895 232.151 33.1895C229.158 33.1895 226.806 35.5835 226.806 38.6304Z" fill="white" stroke="white" stroke-width="0.13" stroke-miterlimit="10"/>
<path d="M248.931 32.6454L250 32.4278V44.833L241.663 35.1482V44.6154L240.594 44.7242V32.319L248.931 41.8949V32.6454Z" fill="white" stroke="white" stroke-width="0.13" stroke-miterlimit="10"/>
<path d="M151.774 3.26453V53.7561" stroke="white" stroke-width="0.5" stroke-miterlimit="10"/>
<path d="M35.699 0H23.7281C22.3386 0 20.9491 0.108818 19.6665 0.435272V20.8931H36.1266V36.7805H56.2206V0H35.699Z" fill="url(#paint0_linear)"/>
<path d="M17.9564 41.6773V31.2308C17.9564 21.2195 25.8658 26.0075 35.699 26.0075L36.1265 20.7842C45.9598 20.7842 53.8692 26.4428 53.8692 36.454V46.9006C53.8692 56.9118 45.3185 58 35.5921 58L35.699 52.1238C25.8658 52.1238 17.9564 51.6886 17.9564 41.6773Z" fill="url(#paint1_linear)"/>
<path d="M19.6665 0.435272C9.51261 2.28518 1.71013 10.4465 0 20.7842H19.6665V0.435272Z" fill="url(#paint2_linear)"/>
<path d="M36.0196 20.7842H35.699V36.7805H36.0196V20.7842Z" fill="url(#paint3_linear)"/>
<path d="M35.699 20.7842H19.6665V36.7805H35.699V20.7842Z" fill="url(#paint4_linear)"/>
<path d="M35.699 20.7842H19.6665V36.7805H35.699V20.7842Z" fill="url(#paint5_linear)"/>
<path d="M36.127 20.7842H0.10733V58H36.2339V36.7805V20.7842H36.127Z" fill="url(#paint6_linear)"/>
<defs>
<linearGradient id="paint0_linear" x1="19.6558" y1="18.3685" x2="102.693" y2="18.3685" gradientUnits="userSpaceOnUse">
<stop stop-color="#E5AF2A"/>
<stop offset="0.52" stop-color="#DA1B5A"/>
</linearGradient>
<linearGradient id="paint1_linear" x1="35.8593" y1="20.7951" x2="35.8593" y2="58.0218" gradientUnits="userSpaceOnUse">
<stop stop-color="#DA1B5A"/>
<stop offset="1" stop-color="#36BFE8"/>
</linearGradient>
<linearGradient id="paint2_linear" x1="9.82792" y1="37.194" x2="9.82792" y2="-0.0217635" gradientUnits="userSpaceOnUse">
<stop stop-color="#40B0A1"/>
<stop offset="0.03" stop-color="#3FADA0" stop-opacity="0.99"/>
<stop offset="0.05" stop-color="#3DA49B" stop-opacity="0.97"/>
<stop offset="0.07" stop-color="#389593" stop-opacity="0.94"/>
<stop offset="0.09" stop-color="#328088" stop-opacity="0.88"/>
<stop offset="0.11" stop-color="#2A657A" stop-opacity="0.82"/>
<stop offset="0.12" stop-color="#204468" stop-opacity="0.74"/>
<stop offset="0.13" stop-color="#1B3460" stop-opacity="0.7"/>
<stop offset="0.22" stop-color="#245371" stop-opacity="0.78"/>
<stop offset="0.36" stop-color="#307B86" stop-opacity="0.87"/>
<stop offset="0.48" stop-color="#399895" stop-opacity="0.94"/>
<stop offset="0.58" stop-color="#3EAA9F" stop-opacity="0.98"/>
<stop offset="0.65" stop-color="#40B0A2"/>
<stop offset="0.69" stop-color="#48B09C"/>
<stop offset="0.75" stop-color="#5EB08C"/>
<stop offset="0.83" stop-color="#82B072"/>
<stop offset="0.92" stop-color="#B3AF4E"/>
<stop offset="1" stop-color="#E5AF2A"/>
</linearGradient>
<linearGradient id="paint3_linear" x1="19.6557" y1="28.766" x2="56.1886" y2="28.766" gradientUnits="userSpaceOnUse">
<stop stop-color="#E5AF2A"/>
<stop offset="1" stop-color="#DA1B5A"/>
</linearGradient>
<linearGradient id="paint4_linear" x1="19.6558" y1="28.766" x2="56.1886" y2="28.766" gradientUnits="userSpaceOnUse">
<stop stop-color="#E5AF2A"/>
<stop offset="1" stop-color="#DA1B5A"/>
</linearGradient>
<linearGradient id="paint5_linear" x1="27.6935" y1="37.194" x2="27.6935" y2="-0.0217639" gradientUnits="userSpaceOnUse">
<stop stop-color="#40B0A1"/>
<stop offset="1" stop-color="#E5AF2A"/>
</linearGradient>
<linearGradient id="paint6_linear" x1="-44.0675" y1="39.403" x2="36.9286" y2="39.403" gradientUnits="userSpaceOnUse">
<stop stop-color="#40B3A3"/>
<stop offset="0.09" stop-color="#368F90"/>
<stop offset="0.22" stop-color="#275E76"/>
<stop offset="0.33" stop-color="#1E3F66"/>
<stop offset="0.38" stop-color="#1B3460"/>
<stop offset="0.47" stop-color="#1D426E"/>
<stop offset="0.65" stop-color="#246892"/>
<stop offset="0.88" stop-color="#2EA4CC"/>
<stop offset="1" stop-color="#34C4EC"/>
</linearGradient>
</defs>
</svg>
