<svg width="29" height="31" viewBox="0 0 29 31" fill="none" xmlns="http://www.w3.org/2000/svg">
<path d="M2.59981 24.4L10.2998 14.9L3.7998 6.50002C3.1998 5.70002 2.69981 5.00002 2.39981 4.40002C2.09981 3.80002 1.99981 3.20003 1.99981 2.60003C1.99981 2.00003 2.29981 1.50003 2.89981 1.10003C3.4998 0.700025 4.19981 0.400024 5.09981 0.400024C6.09981 0.400024 6.79981 0.600025 7.39981 1.10003C7.99981 1.60003 8.69981 2.50002 9.69981 3.80002L14.8998 10.9L20.3998 3.80002C20.8998 3.20002 21.1998 2.70002 21.5998 2.30002C21.8998 1.90002 22.1998 1.50003 22.4998 1.20003C22.7998 0.900026 23.0998 0.700025 23.4998 0.600025C23.8998 0.500025 24.2998 0.400024 24.7998 0.400024C25.6998 0.400024 26.3998 0.600025 26.9998 1.10003C27.5998 1.50003 27.7998 2.10003 27.7998 2.70003C27.7998 3.60003 27.1998 4.80002 25.9998 6.30002L19.1998 14.9L26.4998 24.4C27.1998 25.2 27.5998 25.9 27.8998 26.5C28.1998 27.1 28.2998 27.6 28.2998 28.1C28.2998 28.6 28.1998 29 27.8998 29.4C27.5998 29.8 27.2998 30.1 26.7998 30.3C26.2998 30.5 25.7998 30.6 25.0998 30.6C24.3998 30.6 23.8998 30.5 23.3998 30.3C22.8998 30.1 22.5998 29.8 22.2998 29.4C21.9998 29 21.4998 28.4 20.6998 27.4L14.5998 19.4L8.0998 27.7C7.5998 28.4 7.19981 28.8 6.99981 29.1C6.79981 29.4 6.49981 29.6 6.19981 29.9C5.89981 30.2 5.49981 30.3 5.09981 30.5C4.69981 30.6 4.19981 30.7 3.69981 30.7C2.89981 30.7 2.09981 30.5 1.59981 30C0.999806 29.6 0.799805 28.9 0.799805 28.1C0.899805 27 1.49981 25.8 2.59981 24.4Z" fill="white"/>
</svg>
