<svg width="203" height="182" viewBox="0 0 203 182" fill="none" xmlns="http://www.w3.org/2000/svg">
<path d="M150.1 10.3C142.8 15.4 133.7 23.2 129.6 27.8C111.3 48.3 103.5 73.2 102 74.3C101.2 74.9 94.3002 51 87.6002 37.3C60.6002 -18.5 -13.7998 -14.8 3.60016 69.8C20.5002 60.2 20.6002 60.1 28.7002 55.4C30.8002 59.4 32.7002 58.3 14.7002 68.4C9.50016 71.3 5.30016 73.9 5.20016 74.2C5.10016 75.5 9.10016 85.2 9.20016 85.6C23.8002 77 36.6002 70.7 37.0002 70.7C37.8002 70.8 39.6002 74.9 39.1002 75.5C38.4002 76.3 16.4002 86.9 13.1002 88.8L11.0002 90.1C15.0002 97.8 15.0002 97.8 22.5002 109.9C33.8002 102.7 49.5002 94.2 50.7002 94.3C51.1002 94.3 51.9002 95.2 52.4002 96.1C53.4002 98.1 53.4002 98.1 42.9002 103.7C34.0002 108.4 26.2002 112.8 25.7002 113.4C24.6002 114.6 30.6002 120.9 31.3002 121.7C42.4002 134.7 54.8002 146.9 68.7002 156.7L70.8002 158.2C79.5002 164.2 95.3002 178.9 98.6002 180.8C106 185.2 109.7 170.6 131.1 147.4C140.1 137.7 153.5 122 164 108.2C183 83.2 203.1 61.5 202.8 31.5C202.6 12.9 197.6 5.70001 182.5 2.10001C169.7 -0.899992 160 3.40001 150.1 10.3ZM146.7 66.3C148.9 68.1 147.3 71 144.3 70.8C142.3 70.6 141.1 67.8 142.4 66.1C144.1 63.8 146.8 66.3 146.7 66.3ZM153.6 82.3C152.3 82.8 151.8 82.6 151 81.6C147.5 77 155.1 74.6 156 78.5C156.2 78.5 156.9 81.1 153.6 82.3ZM126.6 80.4C128.2 81.4 128.4 85 126.9 86C122.7 89 117.4 80.5 125.3 79.9C125.7 80 126.2 80.2 126.6 80.4ZM139.2 89.5C136.6 89.3 135.8 86.1 138.1 85C143.8 82.2 145 90 139.2 89.5ZM128 101.1C126.8 100.9 126 99.7 126.2 98.4C126.4 97.3 127.4 96.5 128.6 96.6C131.7 96.9 131.3 101.7 128 101.1ZM147.5 100.7C147.2 103.8 144 105 142.7 102.5C140.8 98.9 147.8 96.8 147.5 100.7Z" fill="#FEC92D"/>
</svg>
