<!-- Generated by IcoMoon.io -->
<svg version="1.1" xmlns="http://www.w3.org/2000/svg" width="191" height="32" viewBox="0 0 191 32">
<title>e-arrows</title>
<path d="M157.75 25.385c-6.716 1.813-26.325 7.488-27.971 6.481-1.007-0.571-1.578-6.816-1.713-13.599-13.901 0.134-42.275 0.47-61.817 0.772-8.092 0.134-17.226 0.839-26.661 0.873-12.088 0-24.579 0.974-36.097 0.974h-0.101c-1.909-0.343-3.341-1.983-3.358-3.96v-0.002c-0.001-0.027-0.001-0.058-0.001-0.089 0-1.898 1.432-3.462 3.275-3.67l0.017-0.002c11.584-0.269 24.143-0.47 36.264-0.504 9.402 0 18.468-0.101 26.56-0.235 19.576-0.336 48.017-0.672 61.885-0.839-0.042-0.612-0.065-1.327-0.065-2.047 0-3.355 0.515-6.59 1.47-9.631l-0.062 0.227c1.108-0.873 20.080 3.391 26.191 4.634s35.828 8.092 35.828 9.872c0 1.948-26.93 8.898-33.645 10.745z"></path>
</svg>
