<!-- Generated by IcoMoon.io -->
<svg version="1.1" xmlns="http://www.w3.org/2000/svg" width="41" height="32" viewBox="0 0 41 32">
<title>e-board</title>
<path d="M39.672-0.007h-38.716c-0 0-0 0-0 0-0.527 0-0.954 0.426-0.956 0.953v31.051h40.629v-31.051c-0.002-0.527-0.429-0.953-0.956-0.953-0 0-0.001 0-0.001 0h0zM0.956 0.708h38.716c0.131 0.001 0.236 0.107 0.238 0.237v28.257h-4.014c-0.1-0.284-0.365-0.484-0.677-0.485h-5.877c-0.312 0.001-0.577 0.201-0.675 0.48l-0.002 0.005h-1.438c-0.1-0.284-0.365-0.484-0.677-0.485h-3.092c-0.312 0.001-0.577 0.201-0.675 0.48l-0.002 0.005h-22.062v-28.257c0.002-0.13 0.107-0.236 0.237-0.237h0zM35.218 30.123h-5.876v-0.687h5.877zM26.548 30.123h-3.092v-0.687h3.092zM0.719 31.281v-1.363h22.017v0.205c0.002 0.396 0.323 0.715 0.719 0.715 0 0 0 0 0 0h3.092c0 0 0 0 0 0 0.396 0 0.717-0.32 0.719-0.715v-0.205h1.355v0.205c0.002 0.396 0.323 0.715 0.719 0.715 0 0 0 0 0 0h5.877c0 0 0 0 0 0 0.396 0 0.717-0.32 0.719-0.715v-0.205h3.973v1.363h-39.191zM18.324 18.481c0.066 0.005 0.143 0.009 0.22 0.009 0.586 0 1.13-0.176 1.583-0.479l-0.010 0.007c0.074-0.080 0.18-0.129 0.297-0.129s0.223 0.050 0.297 0.129l0 0c0.443 0.296 0.987 0.472 1.572 0.472 0.078 0 0.154-0.003 0.23-0.009l-0.010 0.001c1.782 0 4.042-2.801 4.042-5.951 0-3.732-2.306-4.307-3.012-4.397-0.021-0.004-0.044-0.007-0.069-0.007-0.199 0-0.36 0.161-0.36 0.36 0 0.191 0.15 0.348 0.338 0.359l0.001 0c0.716 0.086 2.382 0.626 2.382 3.685-0.012 1.396-0.458 2.685-1.21 3.741l0.014-0.020c-0.656 0.92-1.49 1.514-2.127 1.514-0.061 0.006-0.131 0.009-0.203 0.009-0.446 0-0.861-0.134-1.207-0.363l0.008 0.005c-0.186-0.152-0.427-0.245-0.689-0.245s-0.503 0.092-0.691 0.246l0.002-0.002c-0.338 0.224-0.753 0.358-1.199 0.358-0.072 0-0.142-0.003-0.212-0.010l0.009 0.001c-0.636 0-1.471-0.593-2.127-1.514-0.738-1.037-1.184-2.326-1.196-3.718l-0-0.003c0-3.599 2.357-3.703 2.625-3.703 0.029-0.001 0.064-0.001 0.099-0.001 0.428 0 0.839 0.074 1.221 0.211l-0.025-0.008c0.036 0.013 0.078 0.021 0.121 0.021 0.154 0 0.286-0.095 0.34-0.23l0.001-0.002c0.014-0.037 0.023-0.080 0.023-0.125 0-0.153-0.096-0.284-0.232-0.334l-0.002-0.001c-0.434-0.155-0.936-0.245-1.458-0.245-0.031 0-0.062 0-0.093 0.001l0.005-0c-0.342 0-3.344 0.126-3.344 4.419 0.004 3.15 2.264 5.951 4.046 5.951zM18.644 7.313c0.875 0.342 1.474 1.445 1.55 2.787-0.009 0-0.019 0-0.029 0-0.254 0-0.497-0.048-0.721-0.134l0.014 0.005c-0.046-0.15-0.183-0.256-0.344-0.256-0.199 0-0.36 0.161-0.36 0.36 0 0 0 0.001 0 0.001v-0c0 0.212 0.118 0.496 0.683 0.64 0.283 0.067 0.608 0.105 0.942 0.105 0.025 0 0.051-0 0.076-0.001l-0.004 0c0.701 0 1.878-0.097 1.878-0.751 0-0 0-0 0-0 0-0.199-0.161-0.36-0.36-0.36-0.153 0-0.284 0.096-0.336 0.231l-0.001 0.002c-0.166 0.072-0.358 0.12-0.559 0.133l-0.005 0c0.696-0.63 1.295-1.35 1.783-2.144l0.024-0.042c0.541-1.053 0.681-2.636 0.521-2.966l-0.095-0.176-0.175-0.036c-0.456-0.090-1.857 1.237-2.303 2.186-0.167 0.356-0.305 0.771-0.392 1.205l-0.006 0.036c-0.311-0.668-0.842-1.189-1.497-1.481l-0.019-0.008c-0.039-0.016-0.085-0.026-0.133-0.026-0.151 0-0.28 0.093-0.333 0.225l-0.001 0.002c-0.016 0.039-0.025 0.084-0.025 0.131 0 0.151 0.094 0.28 0.226 0.332l0.002 0.001zM21.474 7.198c0.322-0.591 0.741-1.088 1.241-1.488l0.010-0.007c-0.057 0.686-0.232 1.319-0.504 1.896l0.014-0.034c-0.362 0.597-0.77 1.113-1.232 1.575l-0 0c0.052-0.712 0.22-1.373 0.486-1.98l-0.015 0.039zM17.568 15.561c-0.058-0.125-0.183-0.211-0.327-0.211-0.199 0-0.36 0.161-0.36 0.36 0 0.056 0.013 0.108 0.035 0.155l-0.001-0.002c0.281 0.469 0.697 0.832 1.194 1.040l0.017 0.006c0.038 0.016 0.081 0.025 0.127 0.025 0.001 0 0.002 0 0.003-0h-0c0.001 0 0.002 0 0.003 0 0.197 0 0.357-0.16 0.357-0.357 0-0.151-0.094-0.28-0.227-0.332l-0.002-0.001c-0.339-0.149-0.617-0.383-0.814-0.676l-0.004-0.007zM7.067 25.021c0.396-0.529 0.806-1.068 1.203-1.586 0.587-0.116 1.264-0.184 1.956-0.187h0.003c0.021 0.931 0.141 1.625 0.495 1.927 0.062 0.056 0.144 0.090 0.234 0.090 0.001 0 0.001 0 0.001 0h-0c0.198-0.001 0.357-0.162 0.357-0.36 0-0.107-0.047-0.203-0.121-0.269l-0-0c-0.33-0.284-0.252-2.244-0.216-3.081 0.046-1.14 0.050-1.445-0.133-1.636l-0.132-0.122h-0.153c-0.214 0-0.479 0-4.070 4.796-0.054 0.063-0.087 0.145-0.087 0.235 0 0.199 0.161 0.36 0.36 0.36 0.127 0 0.238-0.066 0.302-0.165l0.001-0.001zM10.282 20.919c-0.005 0.198-0.014 0.41-0.022 0.604-0.014 0.356-0.026 0.69-0.032 1.010-0.36 0.011-0.859 0.032-1.318 0.079 0.549-0.701 1.037-1.305 1.373-1.693zM22.49 21.393c0-1.348-2.255-1.463-2.512-1.474-0.002-0-0.004-0-0.006-0-0.093 0-0.178 0.034-0.244 0.090l0-0c-0.060-0.121-0.182-0.203-0.324-0.203-0.199 0-0.36 0.161-0.36 0.36 0 0.001 0 0.001 0 0.002v-0c0 0.309-0.006 0.69-0.013 1.107-0.044 2.754-0.008 3.721 0.288 4.020 0.079 0.079 0.188 0.129 0.309 0.129h0c0.413 0 2.487-0.64 2.487-1.542 0-0.507-0.545-0.784-1.083-0.982 0.66-0.266 1.457-0.708 1.457-1.507zM21.39 23.885c-0.132 0.248-1.088 0.68-1.57 0.795-0.054-0.424-0.085-0.915-0.085-1.412 0-0.084 0.001-0.167 0.003-0.25l-0 0.012c0.072 0.219 0.278 0.288 0.675 0.417 0.372 0.096 0.697 0.247 0.988 0.446l-0.011-0.007zM20.34 22.396c-0.249 0.044-0.46 0.18-0.601 0.371l-0.002 0.003c0-0.532 0.009-1.071 0.015-1.481 0.004-0.255 0.008-0.496 0.011-0.715 0.053 0.037 0.119 0.060 0.19 0.061h0c0.569 0.022 1.818 0.241 1.818 0.759 0 0.493-0.966 0.838-1.431 1.003zM31.597 24.672c0.027 0.007 0.057 0.011 0.089 0.011h0c0 0 0.001 0 0.001 0 0.198 0 0.358-0.16 0.358-0.358 0-0.167-0.114-0.307-0.268-0.346l-0.002-0.001c-0.931-0.234-1.464-0.849-1.461-1.686 0.030-1.025 0.746-1.875 1.704-2.107l0.015-0.003c0.166-0.034 0.289-0.179 0.289-0.353 0-0.199-0.161-0.36-0.36-0.36-0.036 0-0.071 0.005-0.104 0.015l0.003-0.001c-1.286 0.318-2.231 1.446-2.265 2.801l-0 0.004c-0.004 1.158 0.762 2.071 2.002 2.384z"></path>
</svg>
