<!-- Generated by IcoMoon.io -->
<svg version="1.1" xmlns="http://www.w3.org/2000/svg" width="35" height="32" viewBox="0 0 35 32">
<title>e-case</title>
<path d="M32.017 3.019h-9.023v-0.594c0-0.788 0-2.428-2.029-2.428h-6.931c-1.448 0-2.151 0.673-2.151 2.055v0.967h-8.967c-2.016 0-2.916 0.848-2.916 2.751v26.227l35.302-0.076v-26.049c0-1.445-0.254-2.854-3.286-2.854zM26.154 31.278l-6.634 0.017v-2.306c0-0.412 0.135-0.538 0.577-0.538h5.562c0.019-0.003 0.040-0.005 0.062-0.005 0.241 0 0.436 0.195 0.436 0.436 0 0.019-0.001 0.038-0.004 0.056l0-0.002v2.342zM25.659 27.791h-5.562c-1.023 0-1.237 0.65-1.237 1.198v2.306l-11.599 0.026v-6.581l1.257 2.811c0.073 0.159 0.202 0.282 0.362 0.345l0.005 0.002c0.070 0.026 0.15 0.042 0.234 0.043h0.001c0.097-0 0.189-0.022 0.271-0.061l-0.004 0.002 7.113-3.22c0.159-0.072 0.281-0.202 0.342-0.362l0.001-0.004c0.028-0.071 0.044-0.153 0.044-0.238 0-0.098-0.021-0.191-0.059-0.274l0.002 0.004-1.785-3.988c-0.105-0.23-0.333-0.388-0.598-0.388-0.098 0-0.19 0.021-0.273 0.060l0.004-0.002-6.915 3.127v-14.552h15.073v3.124c-0.762 0.28-1.877 1.25-1.877 2.184v4.516c0 0.353 0.34 0.366 0.812 0.386 0.287 0.010 0.683 0.017 1.148 0.017 2.53 0 2.53-0.040 2.53-0.402v-4.421c0-1.079-1.194-2.095-1.953-2.319v-3.085h4.892v23.231l-1.075 0.003v-2.342c0.001-0.017 0.002-0.038 0.002-0.058 0-0.601-0.487-1.089-1.089-1.089-0.023 0-0.045 0.001-0.067 0.002l0.003-0zM5.186 19.395h-1.9c-0.115 0-0.36 0-0.36-0.564v-6.189c-0.006-0.029-0.010-0.063-0.010-0.097 0-0.263 0.213-0.476 0.476-0.476 0.033 0 0.066 0.003 0.098 0.010l-0.003-0.001h1.699v7.317zM5.842 8.043h0.762v23.278l-0.762 0.003v-23.281zM5.842 7.383v-3.705h0.762v3.705h-0.762zM7.334 23.287l7.109-3.216 1.785 3.988-7.113 3.216zM22.717 11.744c0.33 0 1.57 0.864 1.57 1.702v4.127c-0.68 0.036-2.504 0.053-3.17 0.013v-4.236c0-0.729 1.287-1.607 1.6-1.607zM28.543 8.043h0.762v23.228l-0.762 0.003v-23.231zM28.543 7.383v-3.705h0.762v3.705h-0.762zM27.886 3.678v3.705h-4.892v-3.705h4.892zM12.539 2.052c0-0.835 0.254-1.392 1.494-1.392h6.931c1.165 0 1.369 0.567 1.369 1.765v2.692h-0.65v-2.53c0-1.174-0.779-1.3-1.112-1.3h-6.159c-1.023 0-1.227 0.511-1.227 1.333l-0.003 2.494h-0.643v-3.061zM21.028 3.019h-7.185v-0.399c0-0.63 0.073-0.673 0.571-0.673h6.159c0.231 0 0.455 0.050 0.455 0.64v0.432zM13.842 5.773v-2.095h7.185v2.101h1.306v1.603h-15.073v-3.705h4.622v2.095h1.96zM0.66 5.77c0-1.544 0.591-2.092 2.256-2.092h2.27v3.705h-2.27c-1.042 0-1.781 0.228-2.256 0.709v-2.322zM0.66 10.134c0-1.544 0.591-2.092 2.256-2.092h2.27v3.375h-1.699c-0.030-0.003-0.065-0.005-0.101-0.005-0.619 0-1.122 0.502-1.122 1.122 0 0.038 0.002 0.075 0.005 0.111l-0-0.005v6.189c0 0.765 0.379 1.224 1.016 1.224h1.9v11.269l-4.526 0.010v-21.199zM29.961 31.271v-23.228h2.055c2.445 0 2.629 0.871 2.629 2.194v6.75h-2.679c-0.014-0.001-0.030-0.001-0.046-0.001-0.486 0-0.881 0.394-0.881 0.881 0 0.004 0 0.008 0 0.012v-0.001 2.214c-0 0.010-0.001 0.022-0.001 0.034 0 0.48 0.384 0.87 0.861 0.88l0.001 0h2.745v10.257zM34.646 20.341h-2.745c-0.114-0.008-0.204-0.103-0.204-0.218 0-0.011 0.001-0.023 0.003-0.033l-0 0.001v-2.214c-0-0.004-0-0.009-0-0.013 0-0.123 0.1-0.222 0.222-0.222 0.016 0 0.032 0.002 0.047 0.005l-0.001-0h2.679v2.695zM32.017 7.383h-2.055v-3.705h2.055c2.445 0 2.629 0.868 2.629 2.194v2.24c-0.472-0.445-1.267-0.729-2.629-0.729zM22.684 14.951c0.002 0 0.005 0 0.008 0 0.659 0 1.193-0.534 1.193-1.193s-0.534-1.193-1.193-1.193c-0.658 0-1.192 0.533-1.193 1.191v0c0 0.001 0 0.003 0 0.005 0 0.655 0.53 1.187 1.184 1.19h0zM22.684 13.229c0 0 0.001 0 0.002 0 0.292 0 0.529 0.237 0.529 0.53s-0.237 0.53-0.529 0.53c-0.292 0-0.529-0.237-0.529-0.53 0-0.001 0-0.001 0-0.002v0c0-0.291 0.236-0.528 0.528-0.528v0zM13.173 10.748c0.076-1.877 0.026-1.897-0.211-1.986-0.188-0.073-0.198-0.076-2.049 1.042-1.729-0.577-1.798-0.541-1.937-0.465l-0.129 0.073-0.036 0.139c-0.033 0.125-0.050 0.185 0.656 1.838-1.359 1.425-1.356 1.432-1.296 1.649 0.079 0.297 0.086 0.317 2.514 0.247 1.075 1.58 1.108 1.58 1.31 1.58 0.294 0 0.32 0 0.838-2.072 1.778-0.521 1.788-0.577 1.834-0.795 0.046-0.247 0.059-0.303-1.494-1.25zM12.467 12.21l-0.181 0.053-0.046 0.185c-0.122 0.488-0.257 1.016-0.363 1.399-0.214-0.3-0.495-0.706-0.752-1.082l-0.099-0.148-0.181 0.003c-0.581 0.017-1.204 0.030-1.653 0.030 0.254-0.274 0.587-0.63 0.904-0.96l0.148-0.158-0.086-0.201c-0.181-0.429-0.376-0.894-0.515-1.237 0.343 0.102 0.798 0.251 1.207 0.386l0.142 0.050 0.132-0.079c0.505-0.307 1.056-0.633 1.419-0.841-0.003 0.356-0.017 0.861-0.036 1.31l-0.007 0.198 0.165 0.099c0.343 0.208 0.722 0.445 1.006 0.63-0.336 0.109-0.792 0.247-1.204 0.366z"></path>
</svg>
