<!-- Generated by IcoMoon.io -->
<svg version="1.1" xmlns="http://www.w3.org/2000/svg" width="36" height="32" viewBox="0 0 36 32">
<title>e-coffe</title>
<path d="M6.97 15.886c-2.062 0-3.74 1.368-3.74 3.047v1.576l-0.163-0.009c-0.778-0.032-1.952-0.085-2.609 0.543-0.284 0.286-0.459 0.679-0.459 1.114 0 0.025 0.001 0.051 0.002 0.076l-0-0.004c-0.001 0.025-0.002 0.055-0.002 0.085 0 0.445 0.179 0.849 0.469 1.143l-0-0c0.484 0.467 1.237 0.555 1.925 0.555 0.222 0 0.437-0.009 0.634-0.018l0.203-0.009v5.384l7.481 0.006v-10.443c0-1.679-1.678-3.047-3.74-3.047zM6.97 16.476c1.497 0 2.749 0.816 3.071 1.908-0.094-0.069-0.202-0.124-0.32-0.16l-0.008-0.002c-0.107-0.034-0.229-0.054-0.356-0.054-0.196 0-0.381 0.047-0.545 0.131l0.007-0.003c-0.257-0.875-0.827-1.069-1.284-1.069-0.008-0-0.018-0-0.028-0-0.647 0-1.201 0.402-1.424 0.97l-0.004 0.010c-0.183-0.088-0.398-0.139-0.624-0.139-0.204 0-0.398 0.041-0.574 0.116l0.010-0.004c-0.499 0.234-0.871 0.67-1.014 1.2l-0.003 0.013c-0.036-0.138-0.058-0.297-0.059-0.46v-0.001c0.001-1.353 1.415-2.457 3.154-2.457zM10.062 19.408c-0.286 1.127-1.564 1.979-3.092 1.979-0.031 0.001-0.068 0.002-0.104 0.002-1.024 0-1.943-0.45-2.57-1.163l-0.003-0.004c0-0.003 0.002-0.006 0.003-0.009 0-0.012 0.097-1.21 0.806-1.483 0.105-0.045 0.227-0.071 0.355-0.071 0.207 0 0.398 0.069 0.552 0.185l-0.002-0.002c0.060 0.050 0.139 0.080 0.224 0.080 0.025 0 0.049-0.003 0.072-0.007l-0.002 0c0.119-0.035 0.208-0.131 0.233-0.25l0-0.002c0.123-0.364 0.36-0.846 1.004-0.846 0.435 0 0.668 0.27 0.779 0.901 0 0.177 0.138 0.322 0.312 0.335l0.001 0c0.099-0.005 0.189-0.044 0.257-0.106l-0 0c0.125-0.115 0.293-0.186 0.477-0.186 0.066 0 0.129 0.009 0.19 0.026l-0.005-0.001c0.254 0.121 0.442 0.345 0.513 0.616l0.001 0.007zM3.001 23.404c-0.705 0.029-1.669 0.070-2.128-0.373-0.179-0.188-0.288-0.442-0.288-0.722 0-0.028 0.001-0.056 0.003-0.083l-0 0.004c-0.001-0.020-0.002-0.044-0.002-0.068 0-0.269 0.106-0.513 0.279-0.693l-0 0c0.476-0.455 1.5-0.408 2.177-0.379l0.189 0.009v2.296zM10.123 28.785l-6.306-0.006v-8.217c0.777 0.87 1.901 1.415 3.153 1.415s2.377-0.545 3.15-1.411l0.004-0.004v8.223zM34.186 18.677c0-6.453 0.003-14.012 0.003-14.459v-2.178c0-1.374-0.62-2.043-1.897-2.043h-19.029c-0.024-0.002-0.051-0.003-0.079-0.003-0.663 0-1.2 0.537-1.2 1.2 0 0.030 0.001 0.060 0.003 0.090l-0-0.004v5.648c0 1.444 1.33 1.444 1.767 1.444h2.572v0.793c-0.63 0.499-1.036 1.259-1.052 2.114l-0 0.003v1.576l-0.163-0.009c-0.778-0.035-1.953-0.085-2.609 0.543-0.284 0.285-0.459 0.678-0.459 1.112 0 0.026 0.001 0.052 0.002 0.077l-0-0.004c-0.001 0.025-0.002 0.055-0.002 0.085 0 0.445 0.179 0.849 0.469 1.143l-0-0c0.484 0.467 1.237 0.555 1.926 0.555 0.222 0 0.437-0.009 0.634-0.018l0.203-0.009v5.179h-2.011c-0.926 0.018-1.672 0.767-1.685 1.693v0.001c0 0.954-0.004 5.819-0.004 5.819v0.294l16.763 0.015v2.663h7.479v-10.807c0-1.042-0.646-1.964-1.631-2.513zM28.336 25.656l-0.228 0.009c-0.703 0.029-1.669 0.070-2.128-0.373-0.178-0.189-0.288-0.445-0.288-0.727 0-0.027 0.001-0.055 0.003-0.081l-0 0.004c-0.001-0.020-0.002-0.044-0.002-0.068 0-0.268 0.106-0.511 0.279-0.69l-0 0c0.475-0.458 1.499-0.411 2.177-0.382l0.189 0.009v2.299zM35.229 21.19c0 1.353-1.414 2.457-3.153 2.457-1.222 0-2.282-0.546-2.805-1.342 0.041-0.684 0.318-1.116 0.825-1.274 0.076-0.022 0.163-0.035 0.253-0.035 0.291 0 0.551 0.134 0.72 0.345l0.001 0.002c0.079 0.105 0.204 0.173 0.344 0.173 0.015 0 0.031-0.001 0.046-0.002l-0.002 0c0.161-0.053 0.278-0.196 0.292-0.368l0-0.001c0.133-0.446 0.328-0.925 0.969-0.969 0.604-0.038 0.86 0.367 1.036 0.769 0.033 0.117 0.115 0.211 0.223 0.257l0.003 0.001c0.025 0.006 0.054 0.010 0.084 0.010 0.139 0 0.259-0.078 0.32-0.193l0.001-0.002c0.155-0.255 0.429-0.423 0.744-0.426h0c0.061 0.179 0.097 0.384 0.098 0.598v0.001zM34.848 20.022c-0.281 0.055-0.523 0.19-0.71 0.381l-0 0c-0.252-0.491-0.754-0.821-1.334-0.821-0.043 0-0.086 0.002-0.128 0.005l0.005-0c-0.676 0.045-1.233 0.511-1.412 1.137l-0.003 0.011c-0.243-0.208-0.561-0.334-0.908-0.334-0.156 0-0.307 0.026-0.447 0.073l0.010-0.003c-0.435 0.131-0.786 0.427-0.988 0.813l-0.004 0.009c-0.002-0.032-0.007-0.068-0.007-0.103 0-1.353 1.415-2.454 3.153-2.454 1.196 0 2.238 0.52 2.772 1.286zM13.263 0.587h19.031c0.955 0 1.31 0.393 1.31 1.453v0.561c-0.381-0.309-0.872-0.496-1.407-0.496-0.054 0-0.108 0.002-0.162 0.006l0.007-0h-18.778c-0.005-0-0.012-0-0.018-0-0.246 0-0.477 0.064-0.678 0.177l0.007-0.004v-1.004c-0.003-0.023-0.005-0.050-0.005-0.077 0-0.343 0.278-0.62 0.62-0.62 0.026 0 0.051 0.002 0.076 0.005l-0.003-0zM21.261 8.373v0.813c0.002 0.010 0.003 0.021 0.003 0.032 0 0.061-0.031 0.115-0.078 0.147l-0.001 0h-4.169c-0.044 0-0.104 0-0.104-0.129v-0.863h4.347zM21.84 9.289c0.003-0.035 0.008-0.068 0.008-0.103v-0.813h4.64c0.069 0 0.212 0 0.212 0.596 0 0.931-0.004 6.614-0.006 9.888l-0.002 2.316c0.003 0.022 0.005 0.047 0.005 0.073 0 0.097-0.025 0.188-0.069 0.268l0.001-0.003c-0.008 0.002-0.017 0.003-0.026 0.003-0.002 0-0.004-0-0.006-0h-3.842v-10.231c-0.014-0.793-0.363-1.501-0.912-1.991l-0.003-0.002zM16.536 9.767c0.119 0.116 0.282 0.188 0.461 0.188 0.007 0 0.014-0 0.021-0l-0.001 0h0.621v0.608c0 0.162 0.131 0.294 0.294 0.294s0.294-0.131 0.294-0.294v0-0.608h1.532v0.608c0 0.162 0.131 0.294 0.294 0.294s0.294-0.131 0.294-0.294v0-0.608h0.841c0.002 0 0.004 0 0.006 0 0.138 0 0.266-0.046 0.368-0.124l-0.001 0.001c0.369 0.374 0.6 0.884 0.611 1.448l0 0.002c0 1.353-1.415 2.454-3.153 2.454s-3.153-1.101-3.153-2.454c0.011-0.598 0.267-1.135 0.673-1.514l0.001-0.001zM15.046 15.753c-0.705 0.029-1.669 0.070-2.128-0.373-0.179-0.188-0.288-0.442-0.288-0.722 0-0.028 0.001-0.056 0.003-0.083l-0 0.004c-0.002-0.021-0.002-0.045-0.002-0.069 0-0.268 0.106-0.51 0.279-0.688l-0 0c0.475-0.458 1.5-0.411 2.177-0.382 0.067 0.003 0.129 0.006 0.189 0.006v2.299zM15.861 12.912c0.777 0.87 1.901 1.415 3.153 1.415s2.377-0.545 3.15-1.411l0.004-0.004v8.602h-6.306v-8.602zM12.162 28.732c0-1.069 0.004-4.715 0.004-5.525 0.016-0.601 0.498-1.085 1.097-1.104l0.002-0h13.334c0.206 0 0.682-0.091 0.682-0.931l0.002-2.316c0.002-3.273 0.006-8.957 0.006-9.888 0-0.787-0.269-1.183-0.799-1.183h-12.735c-0.871 0-1.18-0.226-1.18-0.857v-3.535c-0.003-0.023-0.005-0.051-0.005-0.078 0-0.342 0.277-0.619 0.619-0.619 0.026 0 0.052 0.002 0.078 0.005l-0.003-0h18.777c1.109 0 1.562 0.44 1.562 1.518 0 0.44 0 7.8-0.003 14.194-0.451-0.169-0.972-0.267-1.516-0.267-0.002 0-0.005 0-0.007 0h0c-2.063 0-3.74 1.365-3.74 3.044v1.576c-0.052-0.003-0.105-0.006-0.163-0.006-0.778-0.035-1.952-0.088-2.609 0.543-0.284 0.284-0.459 0.676-0.459 1.109 0 0.026 0.001 0.052 0.002 0.077l-0-0.004c-0.001 0.025-0.002 0.055-0.002 0.085 0 0.446 0.179 0.851 0.468 1.146l-0-0c0.484 0.467 1.237 0.552 1.926 0.552 0.222 0 0.437-0.009 0.634-0.018 0.071-0.003 0.138-0.006 0.203-0.006v2.498zM35.229 31.407h-6.306v-8.584c0.778 0.868 1.902 1.412 3.153 1.412s2.376-0.544 3.15-1.408l0.004-0.004v8.584zM28.607 12.641h3.733c0.325-0.001 0.587-0.264 0.587-0.589 0-0 0-0.001 0-0.001v0-3.728c0-0 0-0.001 0-0.001 0-0.325-0.263-0.588-0.587-0.589h-3.734c-0.325 0.001-0.587 0.265-0.587 0.589 0 0 0 0.001 0 0.001v-0 3.728c0 0 0 0.001 0 0.001 0 0.325 0.263 0.588 0.587 0.589h0zM28.607 8.323h3.733v3.728h-3.733v-3.728zM28.874 13.748c-0.001 0-0.002 0-0.003 0-0.248 0-0.449 0.201-0.449 0.449s0.201 0.449 0.449 0.449c0.248 0 0.449-0.201 0.449-0.449v0c0 0 0 0 0 0 0-0.247-0.199-0.447-0.446-0.449h-0zM28.874 14.338c-0 0-0.001 0-0.001 0-0.077 0-0.14-0.063-0.14-0.14 0-0 0-0.001 0-0.001v0c0-0.078 0.063-0.141 0.141-0.141s0.141 0.063 0.141 0.141v0c0 0 0 0.001 0 0.001 0 0.077-0.063 0.14-0.14 0.14-0 0-0 0-0 0h0zM30.463 13.748c-0.001 0-0.002 0-0.003 0-0.248 0-0.449 0.201-0.449 0.449s0.201 0.449 0.449 0.449c0.248 0 0.449-0.201 0.449-0.449v0c0-0 0-0 0-0 0-0.247-0.199-0.447-0.446-0.449h-0zM30.463 14.338c-0 0-0.001 0-0.001 0-0.077 0-0.14-0.063-0.14-0.14 0-0 0-0.001 0-0.001v0c-0-0.002-0-0.004-0-0.006 0-0.078 0.063-0.141 0.141-0.141s0.141 0.063 0.141 0.141c0 0.002-0 0.005-0 0.007v-0c0 0 0 0.001 0 0.001 0 0.077-0.063 0.14-0.14 0.14-0 0-0 0-0.001 0h0zM32.053 13.748c-0.001 0-0.002 0-0.003 0-0.248 0-0.449 0.201-0.449 0.449s0.201 0.449 0.449 0.449c0.248 0 0.449-0.201 0.449-0.449v0c0-0 0-0 0-0 0-0.247-0.199-0.447-0.446-0.449h-0zM32.053 14.338c-0 0-0.001 0-0.001 0-0.077 0-0.14-0.063-0.14-0.14 0-0 0-0.001 0-0.001v0c-0-0.002-0-0.004-0-0.006 0-0.078 0.063-0.141 0.141-0.141s0.141 0.063 0.141 0.141c0 0.002-0 0.005-0 0.007v-0c0 0 0 0.001 0 0.001 0 0.077-0.063 0.14-0.14 0.14-0 0-0 0-0.001 0h0z"></path>
</svg>
