<!-- Generated by IcoMoon.io -->
<svg version="1.1" xmlns="http://www.w3.org/2000/svg" width="35" height="32" viewBox="0 0 35 32">
<title>e-grid</title>
<path d="M10.895 0h-7.2c-2.055 0.029-3.71 1.702-3.71 3.761 0 0.020 0 0.040 0 0.060l-0-0.003v5.546c-0 0.017-0 0.037-0 0.057 0 2.059 1.655 3.732 3.707 3.761l0.003 0h7.2c2.048-0.037 3.695-1.706 3.695-3.759 0-0.021-0-0.041-0.001-0.062l0 0.003v-5.553c0-0.015 0-0.033 0-0.051 0-2.054-1.646-3.723-3.691-3.759l-0.003-0zM10.895 18.832h-7.2c-2.055 0.029-3.71 1.702-3.71 3.761 0 0.020 0 0.040 0 0.060l-0-0.003v5.548c-0 0.016-0 0.035-0 0.054 0 2.059 1.654 3.732 3.707 3.763l0.003 0h7.2c2.048-0.037 3.695-1.706 3.695-3.759 0-0.020-0-0.040-0-0.060l0 0.003v-5.548c0-0.020 0.001-0.043 0.001-0.066 0-2.054-1.647-3.723-3.692-3.759l-0.003-0zM30.953 0h-7.2c-2.048 0.037-3.695 1.706-3.695 3.759 0 0.021 0 0.041 0 0.062l-0-0.003v5.546c-0 0.017-0 0.038-0 0.059 0 2.054 1.647 3.723 3.692 3.759l0.003 0h7.2c2.055-0.029 3.71-1.702 3.71-3.761 0-0.020-0-0.040-0-0.060l0 0.003v-5.553c0-0.015 0-0.032 0-0.050 0-2.059-1.655-3.732-3.707-3.761l-0.003-0zM30.953 18.832h-7.2c-2.048 0.037-3.695 1.706-3.695 3.759 0 0.021 0 0.041 0 0.062l-0-0.003v5.548c-0 0.017-0 0.037-0 0.057 0 2.054 1.647 3.723 3.692 3.759l0.003 0h7.2c2.055-0.030 3.709-1.703 3.709-3.763 0-0.019-0-0.038-0-0.057l0 0.003v-5.548c0-0.019 0.001-0.042 0.001-0.064 0-2.059-1.655-3.732-3.707-3.761l-0.003-0z"></path>
</svg>
