<!-- Generated by IcoMoon.io -->
<svg version="1.1" xmlns="http://www.w3.org/2000/svg" width="41" height="32" viewBox="0 0 41 32">
<title>e-list</title>
<path d="M15.536 2.997c-6.032 0-13.44-0.064-13.536-0.064-0.8-0.005-1.446-0.654-1.446-1.454 0-0.803 0.651-1.454 1.454-1.454 0.003 0 0.006 0 0.008 0h-0c0.144 0 14.368 0.125 19.424 0.027 5.504-0.099 18.032-0.029 18.16-0.027 0.8 0.005 1.446 0.654 1.446 1.454 0 0.803-0.651 1.454-1.454 1.454-0.003 0-0.006 0-0.008-0h0c-0.128 0-12.624-0.074-18.096 0.027-1.424 0.027-3.584 0.037-5.952 0.037zM31.792 17.578c-3.776 0-8.288-0.024-11.184-0.115-4.944-0.16-19.008 0-19.152 0-0.807-0.019-1.454-0.676-1.456-1.485v-0c-0.001-0.016-0.001-0.035-0.001-0.053 0-0.795 0.633-1.442 1.423-1.465l0.002-0c0.592 0 14.256-0.16 19.28 0 5.664 0.182 17.712 0.093 17.84 0.091v0c0.812 0.023 1.462 0.686 1.462 1.502 0 0.81-0.641 1.47-1.443 1.501l-0.003 0c-0.064 0.002-3.056 0.024-6.768 0.024zM15.584 32c-6.048 0-13.488-0.062-13.584-0.064-0.012 0-0.026 0.001-0.040 0.001-0.804 0-1.456-0.652-1.456-1.456s0.652-1.456 1.456-1.456c0.020 0 0.039 0 0.058 0.001l-0.003-0c0.144 0 14.368 0.125 19.424 0.029 5.504-0.104 18.032-0.027 18.16-0.029 0.012-0 0.026-0.001 0.040-0.001 0.804 0 1.456 0.652 1.456 1.456s-0.652 1.456-1.456 1.456c-0.020 0-0.039-0-0.058-0.001l0.003 0c-0.128 0-12.624-0.075-18.096 0.029-1.424 0.035-3.552 0.035-5.904 0.035z"></path>
</svg>
