<!-- Generated by IcoMoon.io -->
<svg version="1.1" xmlns="http://www.w3.org/2000/svg" width="32" height="32" viewBox="0 0 32 32">
<title>e-location</title>
<path d="M16.527 0.064c-0.338-0.043-0.728-0.067-1.124-0.067-2.372 0-4.541 0.869-6.205 2.306l0.012-0.010c-2.017 1.832-3.294 4.447-3.351 7.361l-0 0.010c-0.311 7.253 4.071 11.083 7.451 17.355 0.49 0.907 0.97 1.803 1.425 2.667 0.224 0.571 0.54 1.061 0.936 1.474l-0.002-0.002c0.043 0.299 0.214 0.551 0.455 0.702l0.004 0.002c0.101 0.067 0.22 0.116 0.348 0.138l0.005 0.001c0.049 0.009 0.106 0.013 0.163 0.013 0.361 0 0.677-0.191 0.853-0.478l0.003-0.004c0.486-0.8 0.274-0.48 0.786-1.312 3.939-6.379 7.854-10.325 8.069-18.059 0.177-6.411-3.954-11.488-9.827-12.096zM16.609 29.12c-0.012-0.139-0.052-0.265-0.114-0.378l0.003 0.005c-0.46-0.885-0.944-1.781-1.437-2.699-3.255-6.037-7.497-9.6-7.21-16.299 0.038-2.348 1.056-4.452 2.661-5.925l0.006-0.005c1.308-1.116 3.018-1.796 4.888-1.796 0.326 0 0.647 0.021 0.962 0.061l-0.037-0.004c0.236 0.020 0.446 0.051 0.653 0.092l-0.037-0.006c4.474 0.768 7.559 4.853 7.417 9.941-0.204 7.168-3.953 10.859-7.755 17.013zM19.008 8.149c-0.119-1.006-0.835-1.818-1.779-2.076l-0.017-0.004c-0.269-0.050-0.577-0.079-0.893-0.079-1.585 0-3.001 0.725-3.933 1.862l-0.007 0.009c-0.517 0.566-0.834 1.324-0.834 2.155 0 0.492 0.111 0.958 0.309 1.374l-0.008-0.019c0.728 1.183 1.897 2.035 3.273 2.33l0.033 0.006c0.139 0.039 0.314 0.077 0.493 0.104l0.025 0.003c0.274 0.067 0.589 0.105 0.913 0.105 0.793 0 1.533-0.23 2.156-0.627l-0.016 0.010c0.591-0.405 0.99-1.051 1.056-1.793l0.001-0.009c0-0.005 0-0.012 0-0.018 0-0.982-0.352-1.882-0.937-2.58l0.005 0.006c0.107-0.167 0.171-0.371 0.171-0.589 0-0.059-0.005-0.118-0.014-0.174l0.001 0.006zM17.483 11.541c-0.292 0.138-0.634 0.218-0.995 0.218-0.292 0-0.572-0.053-0.83-0.149l0.016 0.005c-0.789-0.149-1.458-0.577-1.914-1.176l-0.006-0.008c-0.061-0.125-0.096-0.272-0.096-0.427 0-0.302 0.134-0.572 0.345-0.756l0.001-0.001c0.374-0.426 0.848-0.756 1.386-0.952l0.024-0.008c0.075 0.075 0.157 0.16 0.244 0.245 0.562 0.565 2.051 2.069 1.994 2.784-0.015 0.101-0.080 0.184-0.17 0.223l-0.002 0.001z"></path>
</svg>
