<!-- Generated by IcoMoon.io -->
<svg version="1.1" xmlns="http://www.w3.org/2000/svg" width="34" height="32" viewBox="0 0 34 32">
<title>e-player</title>
<path d="M31.38 0h-28.997c-2.026 0-2.383 0.933-2.383 2.89v29.11l33.702-0.129v-29.236c0-1.651-0.868-2.635-2.322-2.635zM2.383 0.681h28.997c1.426 0 1.641 1.226 1.641 1.954v24.027h-32.34v-23.772c0-1.859 0.272-2.209 1.702-2.209zM0.681 31.316v-3.973h32.34v3.85zM16.671 25.862c6.548-0.004 11.855-5.307 11.867-11.852v-0.001c0-0.072-0.003-0.146-0.003-0.218-0.003-0.024-0.008-0.046-0.014-0.067l0.001 0.003 1.668-1.665 0.003-5.406h1.297v-3.915c-0.003-0.469-0.384-0.848-0.853-0.848-0 0-0.001 0-0.001 0h-2.853c0 0 0 0 0 0-0.469 0-0.849 0.379-0.851 0.847v3.915h1.375v4.834l-0.034 0.031c-1.183-5.403-5.928-9.388-11.604-9.388-6.553 0-11.865 5.312-11.865 11.865s5.312 11.865 11.865 11.865c0.001 0 0.001 0 0.002 0h-0zM25.314 15.963l-0.262-0.266 3.935-3.925 0.003-7.67h0.521l-0.003 7.677zM22.635 17.821l1.791-1.787 0.521 0.524-1.787 1.787zM24.95 16.555l0.238 0.242-0.238-0.238v-0.003zM30.192 5.974v-1.872h0.613v1.872h-0.613zM27.782 2.574h2.853c0.001 0 0.002-0 0.002-0 0.092 0 0.167 0.075 0.168 0.167v0.681h-3.193v-0.681c0.002-0.093 0.077-0.167 0.17-0.167 0 0 0 0 0 0v0zM27.612 5.974v-1.872h0.698v1.872h-0.698zM16.671 2.839c0.016-0 0.036-0 0.055-0 5.486 0 10.043 3.972 10.955 9.197l0.010 0.066-3.254 3.251c-0.002-0-0.004-0-0.006-0-0.19 0-0.362 0.075-0.488 0.198l-1.79 1.79c-0.123 0.123-0.199 0.293-0.199 0.48s0.076 0.357 0.199 0.48v0l0.201 0.201v1.096c0 0.188 0.152 0.34 0.34 0.34s0.34-0.152 0.34-0.34v0-0.586c0.037 0.006 0.080 0.010 0.124 0.010 0.001 0 0.002 0 0.002 0h-0c0.002 0 0.004 0 0.007 0 0.185 0 0.353-0.076 0.473-0.197l0-0 1.791-1.787c0.109-0.109 0.181-0.256 0.194-0.42l0-0.002 2.223-2.216c-0.209 6.013-5.133 10.808-11.178 10.808-6.177 0-11.184-5.007-11.184-11.184s5.007-11.184 11.184-11.184c0.001 0 0.001 0 0.002 0h-0zM16.671 18.38c2.411-0.003 4.364-1.958 4.364-4.369 0-2.413-1.956-4.369-4.369-4.369s-4.368 1.955-4.369 4.368v0c0.003 2.414 1.96 4.37 4.374 4.371h0zM16.671 10.322c2.035 0.003 3.683 1.653 3.683 3.688 0 2.037-1.651 3.688-3.689 3.688s-3.688-1.651-3.688-3.688c0-0.001 0-0.001 0-0.002v0c0.005-2.037 1.656-3.686 3.694-3.687h0zM16.671 14.955c0.521-0.001 0.943-0.424 0.943-0.945s-0.423-0.945-0.945-0.945c-0.521 0-0.944 0.422-0.945 0.943v0c0.001 0.522 0.424 0.945 0.946 0.946h0zM16.671 13.746c0.145 0.001 0.262 0.119 0.262 0.264s-0.118 0.264-0.264 0.264-0.264-0.118-0.264-0.264c0-0.001 0-0.001 0-0.002v0c0.002-0.145 0.12-0.262 0.265-0.262 0 0 0 0 0 0h-0zM8.97 28.449c-0.519 0.002-0.94 0.423-0.94 0.943 0 0.521 0.422 0.943 0.943 0.943s0.943-0.422 0.943-0.943v0c-0.002-0.521-0.424-0.943-0.946-0.943-0 0-0 0-0.001 0h0zM8.97 29.658c-0.147 0-0.266-0.119-0.266-0.266s0.119-0.266 0.266-0.266c0.147 0 0.266 0.119 0.266 0.266v0c-0 0.147-0.119 0.265-0.265 0.266h-0zM3.612 27.843c-0.854 0.002-1.546 0.695-1.546 1.549 0 0.855 0.693 1.549 1.549 1.549s1.549-0.693 1.549-1.549v0c-0.001-0.856-0.695-1.549-1.55-1.549-0.001 0-0.001 0-0.002 0h0zM3.612 30.26c-0.478-0.002-0.865-0.39-0.865-0.868 0-0.479 0.389-0.868 0.868-0.868s0.868 0.389 0.868 0.868v0c-0.001 0.48-0.39 0.868-0.869 0.868-0.001 0-0.001 0-0.002 0h0zM12.572 28.449c-0.519 0.002-0.94 0.423-0.94 0.943 0 0.521 0.422 0.943 0.943 0.943s0.943-0.422 0.943-0.943v0c-0.002-0.521-0.424-0.943-0.946-0.943-0 0-0 0-0.001 0h0zM12.572 29.658c-0.147 0-0.266-0.119-0.266-0.266s0.119-0.266 0.266-0.266c0.147 0 0.266 0.119 0.266 0.266v0c-0 0.147-0.119 0.265-0.265 0.266h-0zM16.174 28.449c-0.519 0.002-0.94 0.423-0.94 0.943 0 0.521 0.422 0.943 0.943 0.943s0.943-0.422 0.943-0.943v0c-0.002-0.521-0.424-0.943-0.946-0.943-0 0-0 0-0.001 0h0zM16.174 29.658c-0.147 0-0.266-0.119-0.266-0.266s0.119-0.266 0.266-0.266c0.147 0 0.266 0.119 0.266 0.266v0c-0 0.147-0.119 0.265-0.265 0.266h-0zM1.883 24.48h0.123v0.272c0.002 0.469 0.382 0.848 0.851 0.848 0 0 0 0 0 0h0.589c0 0 0.001 0 0.001 0 0.469 0 0.85-0.379 0.853-0.847v-0.273h0.116c0.376-0.001 0.68-0.305 0.681-0.681v-0.426c-0.001-0.376-0.305-0.68-0.681-0.681h-0.116v-2.366c-0.002-0.47-0.383-0.851-0.854-0.851-0 0-0 0-0 0h-0.589c-0.47 0-0.851 0.381-0.851 0.851v0 2.366h-0.123c-0.376 0.001-0.68 0.305-0.681 0.681v0.426c0.001 0.376 0.305 0.68 0.681 0.681h0zM3.619 24.752c-0.002 0.093-0.077 0.167-0.17 0.167-0.001 0-0.002 0-0.004-0h-0.589c0 0-0 0-0 0-0.093 0-0.168-0.074-0.17-0.167v-0.273h0.933v0.272zM2.686 20.327c0.002-0.093 0.077-0.169 0.17-0.17h0.589c0 0 0 0 0 0 0.095 0 0.172 0.076 0.174 0.17v2.366h-0.933v-2.366zM1.883 23.374h2.533l-0.003 0.426h-2.529v-0.426z"></path>
</svg>
