<svg xmlns="http://www.w3.org/2000/svg" width="56" height="56.969" viewBox="0 0 56 56.969">
  <path id="_e-search" data-name="e-search" class="cls-1" d="M335.941,765.154c-7.568-7.252-4.993-4.978-11.266-12.452,5.516-6.3,6.985-15.228,4.353-24.116a1.172,1.172,0,0,0-.6-0.744c-1.174-6.032-6.368-11.292-11.293-14.5-6.574-4.277-14.331-3.667-21.376-.8-11.306,4.605-19.275,19.839-13.465,31.424,3.447,6.874,8.08,12.849,15.672,15.129,6.244,1.876,12.638,2.262,18.706-.5a24.005,24.005,0,0,0,6.268-4.119c6.253,7.451,3.687,5.187,11.249,12.432A1.243,1.243,0,0,0,335.941,765.154Zm-18.622-9.619a22.662,22.662,0,0,1-16.448,1.8c-6.714-1.763-10.978-5.288-14.557-11.218-3.428-5.676-4.287-11.543-2.014-17.875a22.225,22.225,0,0,1,10.466-12.475c6.012-3.088,14.227-4.753,20.252-.833,4.85,3.155,10.768,8.4,11.16,14.605a1.22,1.22,0,0,0,.821,1.109C329.328,740.264,326.628,750.8,317.319,755.535ZM294.3,723.891c-6.271,7.064-5.4,17.084-.607,24.731,0.85,1.353,3,.106,2.141-1.256-4.164-6.638-5.312-15.484.22-21.717C297.113,724.455,295.366,722.689,294.3,723.891Z" transform="translate(-280.344 -710.281)"/>
</svg>
